<?xml version="1.0" standalone="no"?>
<!DOCTYPE svg PUBLIC "-//W3C//DTD SVG 20010904//EN"
 "http://www.w3.org/TR/2001/REC-SVG-20010904/DTD/svg10.dtd">
<svg version="1.0" xmlns="http://www.w3.org/2000/svg"
 width="410.000000pt" height="410.000000pt" viewBox="0 0 410.000000 410.000000"
 preserveAspectRatio="xMidYMid meet">
<metadata>
Created by potrace 1.14, written by Peter Selinger 2001-2017
</metadata>
<g transform="translate(0.000000,410.000000) scale(0.100000,-0.100000)"
fill="#000000" stroke="none">
<path d="M3864 3471 c4 -6 1 -9 -6 -6 -18 7 -73 -43 -80 -72 -3 -12 1 -31 9
-42 8 -12 11 -21 7 -21 -4 0 1 -6 12 -14 26 -19 32 -11 9 14 -18 20 -32 85
-16 76 5 -3 12 1 15 9 8 23 62 42 107 39 130 -10 165 -184 58 -286 -97 -92
-242 -120 -379 -73 -102 34 -130 46 -130 56 0 5 -9 9 -20 9 -11 0 -20 4 -20 9
0 5 -10 13 -22 17 -13 4 -46 17 -75 30 -28 13 -59 24 -67 24 -9 0 -16 4 -16 8
0 5 -13 7 -30 6 -16 -1 -30 1 -30 5 0 9 1 9 -104 14 -43 2 -100 0 -125 -6 -25
-5 -53 -10 -61 -12 -42 -7 -151 -58 -213 -100 -28 -19 -48 -35 -44 -35 5 0 -6
-12 -25 -27 -18 -15 -39 -35 -46 -45 -7 -9 -19 -23 -27 -31 -20 -21 -125 -185
-125 -197 0 -5 -4 -10 -8 -10 -4 0 -13 -12 -19 -27 -7 -16 -20 -41 -30 -58
-34 -57 -96 -150 -102 -155 -3 -3 -22 -25 -41 -50 -73 -97 -142 -134 -204
-111 -11 5 -23 8 -26 7 -3 0 -21 14 -40 31 -19 18 -38 33 -42 33 -5 0 -8 7 -8
15 0 9 -7 18 -15 21 -8 4 -15 14 -15 25 0 10 -6 22 -12 26 -15 9 -38 48 -43
72 -2 9 -8 30 -14 46 -5 17 -15 48 -22 70 -6 22 -19 56 -27 75 -16 37 -20 52
-25 110 -2 19 -9 45 -15 57 -7 12 -12 29 -12 38 0 32 -79 174 -102 183 -4 2
-8 9 -8 16 0 28 -110 123 -129 112 -5 -4 -11 -1 -13 6 -5 15 -163 14 -163 -2
0 -1 -12 -3 -26 -4 -14 -2 -35 -6 -45 -11 -10 -4 -25 -9 -32 -11 -22 -4 -103
-75 -114 -100 -6 -13 -16 -24 -21 -24 -6 0 -7 -3 -4 -6 3 -4 2 -14 -3 -24 -32
-59 -46 -274 -20 -305 8 -9 8 -15 0 -20 -6 -3 -7 -11 -4 -17 4 -6 8 -33 10
-62 2 -28 6 -67 9 -86 17 -104 20 -134 19 -230 0 -170 -2 -176 -56 -229 -58
-58 -104 -82 -158 -85 -47 -3 -194 52 -212 78 -4 6 -8 7 -8 3 0 -8 -16 4 -52
38 -17 17 -47 71 -54 98 -1 4 -2 8 -4 10 -18 22 -20 219 -2 225 6 2 12 12 12
22 0 10 5 22 10 25 6 4 8 11 5 16 -4 5 -2 9 3 9 16 0 54 89 58 135 1 17 3 32
4 35 2 5 1 42 -3 102 -1 14 -5 24 -9 21 -5 -2 -8 5 -8 16 0 11 -5 23 -10 26
-6 4 -8 11 -5 16 4 5 1 9 -4 9 -6 0 -11 7 -11 15 0 20 -118 137 -130 130 -6
-4 -10 -2 -10 3 0 9 -18 16 -80 29 -49 11 -118 5 -156 -13 -40 -19 -93 -66
-97 -87 -1 -7 -5 -15 -10 -18 -7 -5 -18 -41 -19 -66 -1 -7 -5 -13 -9 -13 -4 0
-6 -9 -4 -20 2 -11 0 -22 -4 -24 -4 -3 -6 -20 -5 -38 5 -86 9 -106 15 -102 4
2 10 -7 13 -20 8 -34 68 -66 121 -66 35 0 51 6 77 30 18 17 30 30 27 30 -3 0
-3 20 1 45 4 25 3 45 -2 45 -5 0 -6 4 -3 10 3 5 -1 22 -9 37 -13 25 -15 26
-13 6 1 -13 4 -23 7 -23 13 0 0 -103 -15 -126 -19 -29 -92 -37 -121 -13 -6 5
-14 6 -17 2 -4 -3 -7 1 -7 10 0 10 -5 17 -11 17 -5 0 -8 4 -5 9 4 5 1 11 -5
13 -13 4 -16 96 -5 143 4 17 8 37 9 45 1 8 10 24 19 34 10 11 18 25 18 32 0
17 56 58 95 71 17 6 41 8 55 6 14 -2 36 -5 50 -7 39 -5 70 -17 70 -27 0 -5 6
-9 13 -9 15 0 87 -73 87 -88 0 -6 7 -13 16 -16 9 -4 14 -9 11 -13 -4 -3 -1
-15 4 -26 25 -46 30 -207 7 -207 -4 0 -7 -3 -6 -7 2 -5 -16 -46 -39 -93 -22
-47 -41 -92 -41 -100 0 -8 -3 -36 -5 -62 -3 -26 -2 -50 2 -52 4 -3 8 -22 9
-42 2 -21 8 -44 14 -51 6 -7 8 -13 4 -13 -3 0 6 -22 21 -50 15 -27 31 -50 35
-50 4 0 8 -7 8 -15 0 -8 7 -15 15 -15 8 0 15 -4 15 -9 0 -9 126 -74 166 -85
24 -7 89 -18 117 -19 9 -1 17 -6 18 -12 0 -5 3 -19 6 -30 3 -11 6 -37 8 -58 2
-20 6 -41 10 -46 3 -5 2 -12 -3 -15 -12 -7 -7 -48 15 -141 4 -16 7 -37 8 -45
0 -8 4 -21 8 -27 5 -8 3 -13 -5 -13 -8 0 -9 -3 -3 -8 6 -4 11 -18 12 -32 1
-14 4 -50 8 -80 3 -30 5 -95 5 -144 0 -50 4 -92 9 -96 6 -3 12 -28 15 -55 3
-28 5 -50 6 -50 1 0 3 -34 6 -75 7 -147 15 -207 27 -227 5 -8 3 -13 -3 -13 -6
0 -8 -5 -5 -11 4 -5 9 -47 11 -92 10 -224 12 -239 30 -272 10 -18 26 -36 36
-38 10 -3 16 -1 12 4 -3 5 0 9 6 9 6 0 25 14 42 30 17 17 33 29 35 26 3 -3 12
1 20 9 8 8 25 16 39 16 23 1 34 3 52 9 4 1 10 2 15 1 4 0 7 3 7 8 0 5 12 12
26 15 14 4 74 29 131 57 58 27 153 65 212 85 124 40 161 56 161 66 0 5 3 7 8
6 4 -1 19 2 33 6 14 4 34 9 45 11 10 2 19 4 19 5 0 3 39 9 95 15 30 3 69 8 85
11 17 3 44 7 60 10 17 2 60 6 98 7 37 1 67 4 67 7 0 3 26 6 58 7 31 1 68 4 82
7 43 11 106 9 128 -3 27 -14 65 -14 80 1 15 15 16 64 2 73 -6 4 -8 11 -5 16 4
5 1 9 -4 9 -6 0 -11 6 -11 14 0 7 -7 19 -15 26 -9 7 -14 15 -11 17 2 3 -9 32
-26 65 -16 33 -32 77 -34 96 -3 20 -9 41 -13 46 -5 6 -12 25 -15 41 -8 46 -38
129 -49 136 -5 4 -6 12 -3 18 4 6 2 11 -3 11 -6 0 -11 6 -11 14 0 7 -11 34
-25 60 -13 25 -22 46 -18 46 3 0 0 6 -6 13 -6 8 -8 17 -4 20 3 4 2 7 -4 7 -6
0 -11 12 -11 28 0 33 -43 147 -83 220 -16 29 -29 61 -29 71 0 10 -3 21 -7 25
-4 4 -8 17 -8 29 -2 25 -5 33 -56 144 -21 45 -40 99 -44 120 -3 21 -8 45 -10
53 -3 9 22 44 60 84 36 38 82 95 102 125 20 31 39 58 42 61 7 5 26 38 50 85 9
16 19 32 22 35 4 3 16 23 28 45 36 66 66 112 84 133 9 10 17 22 17 26 0 14
134 142 175 167 79 48 186 90 217 84 10 -2 18 -1 18 3 0 18 212 -2 270 -25 8
-4 17 -7 20 -8 36 -12 117 -50 260 -121 14 -7 28 -12 33 -13 4 0 22 -3 41 -6
18 -4 51 -8 72 -9 22 -1 45 -5 52 -10 7 -4 12 -3 12 1 0 5 16 10 37 11 20 2
41 6 47 10 6 3 18 8 27 9 26 4 96 47 131 81 44 41 61 62 51 62 -4 0 -3 4 4 8
13 8 34 122 22 122 -4 0 -5 9 -2 19 7 27 -32 92 -70 116 -35 23 -145 35 -133
16z m-2441 -240 c26 -11 50 -20 53 -20 13 1 60 -66 71 -103 13 -45 14 -44 -65
-53 -30 -3 -58 -7 -63 -11 -16 -10 -67 -19 -157 -29 -30 -3 -67 -12 -84 -21
-34 -17 -63 -12 -54 11 3 8 2 15 -2 15 -4 0 -8 14 -7 30 0 17 4 30 8 30 5 0 6
3 3 8 -8 13 28 79 57 106 34 32 82 57 91 49 3 -4 6 -2 6 4 0 17 90 7 143 -16z"/>
</g>
</svg>
