<svg width="222" height="120" viewBox="0 0 222 120" fill="none" xmlns="http://www.w3.org/2000/svg">
<g clip-path="url(#clip0_9_2)">
<path d="M10.2255 22.2053C10.2318 22.1985 10.2068 22.2251 10.2287 22.2084C10.2521 22.1641 10.2391 22.1902 10.2459 22.2094C10.2521 22.2542 10.2688 22.3329 10.2948 22.436C10.3495 22.6469 10.4307 22.9594 10.537 23.3678C10.7198 24.1928 11.0849 25.4131 10.9401 27.0985C10.8974 27.5188 10.8136 27.9709 10.6313 28.4381C10.4505 28.9016 10.1563 29.387 9.71043 29.7777C9.26721 30.1709 8.69116 30.4381 8.10054 30.5693C7.8047 30.637 7.5021 30.6771 7.20106 30.6912C7.04585 30.699 6.90783 30.7037 6.73804 30.699C6.60158 30.6954 6.47762 30.6975 6.30679 30.6824C5.67449 30.6391 5.04012 30.5193 4.38387 30.2563C3.73699 29.9928 3.09116 29.574 2.58178 28.9995C1.54272 27.8428 1.09637 26.2943 0.968762 24.8074C0.848449 23.3032 0.989595 21.7745 1.35366 20.2547C1.72918 18.7287 2.22397 17.2172 3.16199 15.662C3.38803 15.2787 3.75679 14.8303 4.00001 14.5553C4.3646 14.1636 4.69949 13.8396 5.09064 13.5422C5.85574 12.9339 6.76252 12.4823 7.70575 12.1896C9.60679 11.6016 11.6177 11.6568 13.4953 12.1178C14.438 12.3542 15.3599 12.6886 16.2511 13.1469C16.6974 13.3751 17.136 13.6339 17.5641 13.9376C17.6719 14.0115 17.7771 14.0948 17.8834 14.1735L18.0047 14.2698L18.0662 14.3219L18.1891 14.4271L18.6818 14.8469C19.0229 15.1636 19.4328 15.5412 19.7558 15.8969L20.2505 16.4433L20.7151 17.023C21.3167 17.8126 21.8729 18.6579 22.3052 19.5766C23.1917 21.4006 23.6854 23.4344 23.7506 25.4537C23.7693 25.9589 23.7558 26.4636 23.7229 26.9641L23.6969 27.3396L23.6896 27.4334L23.6755 27.5824L23.6542 27.749C23.637 27.8704 23.6328 27.9469 23.6047 28.1058L23.5261 28.5464C23.3063 29.6277 22.9214 30.6188 22.4907 31.5147C21.6136 33.3001 20.6578 34.7282 20.0792 36.1824C19.4933 37.6256 19.2177 39.0907 19.2532 40.6428C19.262 41.0292 19.288 41.4183 19.3313 41.8094L19.3459 41.9558C19.3479 41.9772 19.3354 41.8954 19.3438 41.9496L19.35 41.9902L19.362 42.0714L19.411 42.397L19.5089 43.0459C19.574 43.4772 19.6641 43.8167 19.737 44.2063C19.8219 44.5855 19.938 44.9688 20.0344 45.3496C20.4974 46.8397 21.1474 48.2126 22.0448 49.3183C22.4901 49.8756 22.9943 50.3699 23.5594 50.8032C24.1297 51.2428 24.7354 51.6022 25.4506 51.9923C26.8302 52.7506 28.175 53.4266 29.5198 53.8714C30.8594 54.3365 32.1985 54.5865 33.5042 54.5793C34.8099 54.5855 36.0719 54.3147 37.2464 53.9032C39.6006 53.0615 41.6037 51.6834 43.2266 50.3074C44.8605 48.9282 46.1563 47.549 47.1912 46.3881C48.2256 45.224 49.0209 44.2829 49.5407 43.6251C50.0641 42.9678 50.3433 42.6173 50.3433 42.6173L50.5167 42.7345C50.5167 42.7345 50.261 43.1032 49.7818 43.7943C49.5464 44.1433 49.2407 44.5626 48.8771 45.0522C48.5214 45.5485 48.0902 46.1016 47.6021 46.7178C46.6172 47.9407 45.3792 49.4011 43.7776 50.9001C42.9813 51.6537 42.0818 52.4037 41.0724 53.1105C40.0646 53.8173 38.9381 54.4792 37.6771 54.9829C36.4188 55.4813 35.0266 55.8407 33.5589 55.8938C32.0933 55.961 30.5714 55.7412 29.0881 55.2829C27.5974 54.8365 26.1506 54.1553 24.7104 53.4141C23.2615 52.7011 21.8172 51.7615 20.7198 50.4464C19.5964 49.1542 18.8328 47.5621 18.2823 45.9115C18.1651 45.4912 18.0313 45.0746 17.9271 44.6475C17.8354 44.2188 17.7214 43.7881 17.6485 43.3569C17.499 42.5006 17.3505 41.6141 17.3203 40.723C17.2323 38.9386 17.5328 37.1126 18.2136 35.435C18.8776 33.748 19.8766 32.2334 20.6386 30.635C21.0167 29.8355 21.3255 29.0053 21.4943 28.148C21.6584 27.2907 21.6818 26.4022 21.6589 25.524C21.6146 23.7652 21.2042 22.0277 20.4589 20.46C19.7167 18.8896 18.624 17.5073 17.3729 16.3605C16.136 15.1652 14.6084 14.3902 13.0089 13.9594C11.4151 13.535 9.73335 13.473 8.212 13.9172C6.68752 14.3553 5.38699 15.3219 4.54481 16.5782C3.72241 17.8495 3.19012 19.2631 2.81043 20.6438C2.4396 22.0303 2.24168 23.4199 2.29793 24.7449C2.35522 26.06 2.69741 27.3417 3.46616 28.2584C4.22866 29.1829 5.35783 29.6235 6.41095 29.7428C7.46929 29.886 8.52866 29.7652 9.24116 29.1881C9.95679 28.6178 10.238 27.7527 10.3578 27.0058C10.5729 25.4735 10.3422 24.2396 10.224 23.4193C10.1526 23.0053 10.0979 22.6881 10.0604 22.474C10.0432 22.3652 10.0323 22.2818 10.0297 22.2167C10.0323 22.1818 10.0198 22.1662 10.05 22.0954C10.0771 22.0516 10.0682 22.0699 10.0724 22.0626L10.2255 22.2053Z" fill="#3AA8A5"/>
<path d="M150.432 59.7204C149.276 63.5871 145.561 65.2449 142.999 63.5871C141.543 62.6824 140.037 61.0751 139.332 57.4605C138.228 61.0751 136.622 63.9881 134.211 63.9881C131.146 63.9881 126.98 60.8251 127.984 52.7397C129.44 40.836 141.844 41.4897 144.406 45.1069C145.36 46.3615 141.442 46.211 140.689 46.1605H140.589C138.68 41.6912 132.904 44.0006 131.9 52.3376C131.047 59.2183 132.653 62.2819 135.064 62.2819C137.475 62.2819 138.378 56.7063 138.981 52.0871C139.03 51.1324 139.183 49.9272 139.483 48.4214C139.635 47.4162 144.655 46.011 144.304 46.9641C142.95 50.8308 142.699 53.2923 142.546 55.7027C142.296 59.8704 143.402 62.0813 144.406 62.7334C146.314 64.0386 148.523 62.4319 149.328 59.8204C149.729 58.5147 150.832 58.3631 150.432 59.7204Z" fill="#238B89"/>
<path d="M157.262 44.8053C154.752 44.8053 152.041 51.8855 151.186 58.5657V58.6647C151.488 60.6735 152.091 61.9298 152.844 62.4319C156.006 64.3402 159.02 61.1761 159.824 54.7485C160.578 48.7204 159.774 44.8053 157.262 44.8053ZM163.741 54.3464C162.688 62.6824 156.158 65.9964 151.84 63.2855C147.219 60.4225 147.62 50.9318 149.229 30.3407C149.278 29.6386 154.1 29.3376 153.999 29.9891C151.989 39.3303 150.987 47.0641 150.886 52.6886C152.543 47.0641 155.254 43.0969 158.268 43.0969C161.381 43.0969 164.697 47.1147 163.741 54.3464Z" fill="#238B89"/>
<path d="M170.673 37.3225C178.658 32.3506 180.265 24.3657 177.805 22.8589C174.792 21.1006 172.029 26.2735 170.673 37.3225ZM180.164 58.9662C179.563 61.0246 176.147 65.3944 172.279 63.9386C168.363 62.5319 165.6 58.0626 166.104 43.7496L166.254 40.585C164.245 41.2391 162.036 41.6912 159.574 41.9423C158.017 42.1438 158.773 41.1376 159.121 41.0881C161.834 40.7865 164.195 40.1834 166.304 39.4303C167.357 24.6662 174.038 19.0922 179.008 22.3063C182.023 24.3152 180.065 33.6053 170.522 38.7787C170.372 40.1344 170.271 41.5407 170.171 43.097C169.317 56.4058 171.377 62.0308 173.837 62.934C175.895 63.6876 178.406 60.8251 179.059 59.0673C179.462 57.8105 180.515 57.6116 180.164 58.9662Z" fill="#238B89"/>
<path d="M179.161 37.2214C178.809 36.1162 179.662 34.8105 181.118 34.3089C182.526 33.8563 183.982 34.3594 184.382 35.5141C184.736 36.6188 183.882 37.9235 182.425 38.3771C181.019 38.8787 179.563 38.3266 179.161 37.2214ZM181.322 63.4365C178.155 61.3772 176.198 52.6886 178.005 44.2527C178.206 43.3985 183.028 42.5938 182.727 43.4495C180.014 51.0324 180.468 61.2261 182.526 62.6824C184.535 64.0386 187.347 62.5319 187.898 59.6194C188.15 58.3136 189.305 58.1626 189.003 59.5188C188.2 63.236 184.635 65.5964 181.322 63.4365Z" fill="#238B89"/>
<path d="M191.114 59.1183C196.588 54.448 198.095 44.6037 195.582 44.0501C192.923 43.5496 191.165 47.8178 190.611 52.7397C190.262 55.2501 190.461 57.4605 191.065 59.1678L191.114 59.1183ZM204.422 56.3048C203.768 59.8204 199.602 64.7418 194.328 64.2386C189.808 63.7886 185.94 60.222 186.745 53.3418C187.549 46.7131 192.219 41.9423 196.588 42.8459C202.816 44.1006 200.052 54.999 191.416 59.9209C192.269 61.6282 193.676 62.7334 195.582 62.884C199.552 63.2855 202.664 59.2668 203.466 56.5558C203.819 55.2501 204.723 54.898 204.422 56.3048Z" fill="#238B89"/>
<path d="M215.07 46.2615C215.621 44.0501 215.12 42.7964 214.064 42.997C211.653 43.5496 208.139 53.4923 206.782 62.9839C206.681 63.6876 205.979 64.0886 204.875 64.1902C203.869 64.2897 203.016 64.1902 203.066 63.8886C203.869 53.5938 203.518 45.1553 202.964 41.6407C202.867 40.8865 207.737 40.0339 207.687 40.7371C207.236 43.9511 206.834 49.8772 206.431 55.7027C206.381 56.2543 206.681 56.2043 206.782 55.6522C208.439 48.3704 210.85 42.0417 215.32 41.1881C218.333 40.6371 219.691 42.8459 219.389 44.9548C219.238 46.011 214.568 48.3704 215.07 46.2615Z" fill="#238B89"/>
<path d="M135.338 80.311C137.849 80.7631 140.158 80.8126 142.267 80.361C148.696 79.1053 152.112 73.3298 151.106 71.4209C148.747 66.9017 140.359 70.6683 135.338 80.311ZM174.51 109.841C168.784 116.168 157.887 119.131 148.797 118.228C136.292 116.971 126.6 107.831 127.604 93.3678C127.905 88.5975 129.111 84.4793 130.818 81.0136C124.842 79.5574 123.582 78.6392 119.079 75.5147C118.518 75.1246 121.27 72.3683 121.741 72.8522C124.503 75.6985 126.197 77.7496 131.671 79.4564C138.451 67.6048 151.408 64.7418 154.371 70.4173C155.978 73.4803 149.852 80.361 141.464 81.7178C139.406 82.0178 137.095 82.0178 134.685 81.7178C133.178 84.9313 132.074 88.748 131.671 93.0673C130.365 106.175 138.401 116.319 150.253 116.47C157.787 116.62 165.37 113.606 171.598 107.431C171.949 107.129 174.963 109.338 174.51 109.841Z" fill="#238B89"/>
<path d="M166.578 100.299C165.422 104.166 161.706 105.824 159.145 104.166C157.689 103.262 156.182 101.655 155.478 98.0392C154.375 101.655 152.767 104.568 150.356 104.568C147.293 104.568 143.125 101.403 144.129 93.3178C145.585 81.4162 157.989 82.0689 160.551 85.6845C161.505 86.9392 157.589 86.7897 156.835 86.7386H156.735C154.826 82.2683 149.05 84.5793 148.046 92.9163C147.192 99.7959 148.799 102.861 151.21 102.861C153.62 102.861 154.525 97.285 155.128 92.6652C155.178 91.7105 155.328 90.5058 155.63 88.9991C155.78 87.9954 160.802 86.5876 160.45 87.5423C159.094 91.4095 158.843 93.8709 158.692 96.2814C158.442 100.45 159.546 102.659 160.551 103.312C162.46 104.618 164.669 103.01 165.473 100.4C165.874 99.0939 166.979 98.9428 166.578 100.299Z" fill="#238B89"/>
<path d="M185.663 99.1433C184.155 102.91 181.495 105.12 177.877 104.768C174.061 104.366 171.048 95.5777 171.299 95.4777C177.426 92.7152 179.133 84.6793 176.824 84.1287C174.512 83.5751 170.245 90.4548 167.985 103.664C167.884 104.366 167.181 104.768 166.126 104.869C165.071 104.969 164.217 104.869 164.267 104.568C164.87 89.0491 164.972 81.5157 165.122 70.9188C165.122 70.2162 170.043 69.8142 169.892 70.4678C169.24 73.2798 168.186 86.7897 167.632 96.3814C167.582 96.9345 167.985 97.0845 168.085 96.5324C169.642 88.848 173.961 81.6157 178.431 82.973C183.502 84.5287 180.992 94.1709 174.463 96.8334C174.212 96.8834 176.774 103.212 179.586 103.513C181.444 103.714 183.402 101.955 184.507 99.1433C185.009 97.8887 186.165 97.8381 185.663 99.1433Z" fill="#238B89"/>
<path d="M187.874 99.6954C193.347 95.0256 194.854 85.1829 192.343 84.6303C189.68 84.1288 187.922 88.3965 187.372 93.3178C187.019 95.8288 187.22 98.0392 187.823 99.7465L187.874 99.6954ZM201.182 96.8835C200.53 100.4 196.362 105.32 191.088 104.818C186.568 104.366 182.701 100.801 183.504 93.9199C184.308 87.2918 188.978 82.5215 193.347 83.4246C199.575 84.6793 196.812 95.5777 188.175 100.499C189.028 102.206 190.435 103.312 192.343 103.463C196.311 103.864 199.424 99.8465 200.227 97.134C200.579 95.8288 201.482 95.4777 201.182 96.8835Z" fill="#238B89"/>
<path d="M204.397 93.4183C206.254 92.7657 208.565 92.5142 211.126 92.6147C210.372 90.8569 208.966 89.3001 206.856 87.8439C206.605 87.6428 206.354 87.4918 206.154 87.2918C205.902 89.6017 205.4 91.6605 204.397 93.4183ZM211.527 93.7699C206.003 93.4183 202.136 95.1256 201.635 99.0428C201.282 101.604 201.935 104.417 205.501 104.668C208.816 104.919 211.427 101.353 211.779 98.0887C211.979 96.4814 211.93 95.0756 211.527 93.7699ZM220.015 95.4777C218.509 95.0256 217.052 94.6235 215.646 94.322C215.997 95.2767 216.098 96.3303 215.997 97.5871C215.244 104.217 209.769 106.627 205.049 105.924C201.434 105.371 198.721 102.408 199.274 98.8428C199.625 96.8834 201.031 95.2267 202.789 94.1709C204.397 92.0126 204.849 89.5511 205.099 86.6386C203.894 85.6845 203.14 84.4793 203.191 83.223C203.242 81.9683 203.944 81.2152 204.698 80.9636C205.702 80.7121 206.856 81.2152 206.856 81.2652C205.852 87.0407 212.582 88.647 215.093 93.1168C216.851 93.4183 218.659 93.8709 220.517 94.473C222.225 95.0256 221.32 95.9288 220.015 95.4777Z" fill="#238B89"/>
<path d="M123.266 31.2313C125.589 55.2579 118.224 65.4485 110.618 68.6657L115.627 71.2631C119.901 68.4579 125.677 65.2277 127.586 30.2771C127.636 29.5751 123.2 30.5313 123.266 31.2313Z" fill="#238B89"/>
<path d="M144.855 27.9365C126.166 22.6646 109.752 23.2636 99.9631 33.1891L100.633 34.1287C110.939 25.7876 128.612 26.0407 144.257 32.9688C144.918 33.2615 145.548 28.1313 144.855 27.9365Z" fill="#238B89"/>
<path d="M54.8485 86.7871C55.5959 87.1819 56.4475 87.1741 57.1563 86.8199C57.8709 86.4736 58.4657 85.8902 58.9839 85.2569C60.0256 83.9808 60.8313 82.4913 61.5485 80.973C62.9662 77.9162 64.0423 74.6881 65.012 71.4371C65.4844 69.8069 65.9657 68.1787 66.4053 66.5371C66.8485 64.8964 67.2662 63.2485 67.6641 61.5949C68.0647 59.9423 68.4313 58.2813 68.811 56.6246L69.3558 54.135L69.8631 51.6522L70.0631 50.673L71.0777 50.372C73.7167 49.5876 76.2683 48.5808 78.66 47.3188C81.0615 46.0761 83.2917 44.5537 85.2912 42.7683C87.2985 40.9891 89.0605 38.9412 90.6532 36.7329C92.2631 34.5334 93.6954 32.161 95.1079 29.7141C96.524 27.2699 97.9225 24.7438 99.5548 22.2683C101.176 19.7933 103.108 17.3933 105.451 15.3469C106.034 14.8344 106.65 14.3558 107.279 13.8948L107.759 13.5594L108.033 13.3745L108.257 13.2297C108.569 13.0349 108.83 12.8511 109.183 12.6464C109.526 12.4469 109.872 12.237 110.215 12.0495L111.241 11.5131L112.292 11.0193L113.367 10.5724C116.26 9.43651 119.403 8.8563 122.511 8.92401C125.62 8.97036 128.667 9.61932 131.513 10.6396C132.939 11.148 134.318 11.7542 135.653 12.4277C136.318 12.7662 136.977 13.1162 137.62 13.4876C138.173 13.7876 138.867 14.2084 139.431 14.4881C141.754 15.6886 144.323 16.6396 146.905 16.9662C149.489 17.3021 152.139 17.0907 154.567 16.1631C155.782 15.711 156.93 15.0719 157.968 14.2917C158.995 13.5042 159.924 12.5615 160.599 11.5157C160.769 11.2558 160.913 10.9865 161.031 10.7209C161.102 10.586 161.132 10.4568 161.187 10.325C161.226 10.2084 161.28 9.99328 161.322 9.83859C161.475 9.23495 161.587 8.56307 161.629 7.92244C161.707 6.63078 161.522 5.31828 160.937 4.20838C160.362 3.09692 159.36 2.24171 158.127 1.84796C157.821 1.7464 157.502 1.67661 157.177 1.62244L156.665 1.56619L156.18 1.54379C155.515 1.5365 154.851 1.62296 154.222 1.81775C153.593 2.00525 152.998 2.31515 152.508 2.74431C152.015 3.16827 151.642 3.7313 151.488 4.35473C151.335 4.97869 151.456 5.6563 151.818 6.21203C152.178 6.77349 152.755 7.19067 153.378 7.49536L153.281 7.72036C152.619 7.42817 151.981 7.01307 151.55 6.40161C151.116 5.79849 150.935 5.00942 151.083 4.27713C151.229 3.54588 151.632 2.88598 152.165 2.38494C152.696 1.87869 153.344 1.50578 154.031 1.26984C155.414 0.801608 156.916 0.787023 158.321 1.15734C159.73 1.53442 160.978 2.49171 161.703 3.76098C162.443 5.02557 162.711 6.5063 162.686 7.9438C162.669 8.66724 162.582 9.38234 162.436 10.0928C162.308 10.7933 162.036 11.5027 161.678 12.1251C160.962 13.3891 159.967 14.4626 158.86 15.3803C157.742 16.2886 156.499 17.0422 155.17 17.5954C152.518 18.7318 149.566 19.073 146.713 18.7688C143.846 18.4782 141.09 17.5417 138.51 16.2954C137.222 15.6688 135.999 14.9334 134.725 14.3193C133.452 13.6985 132.146 13.1454 130.806 12.6881C128.133 11.7693 125.322 11.2152 122.497 11.2099C119.675 11.1959 116.854 11.7245 114.232 12.7683C112.921 13.2855 111.653 13.9297 110.455 14.662C109.852 15.036 109.256 15.4219 108.688 15.8329C108.122 16.2532 107.566 16.6886 107.04 17.1573C104.915 19.0209 103.157 21.2652 101.582 23.6193C100.006 25.9782 98.6105 28.4594 97.1673 30.9178C95.7272 33.3772 94.2355 35.8199 92.5308 38.1193C90.8298 40.4183 88.9105 42.5704 86.736 44.4391C84.5678 46.3136 82.1553 47.9016 79.5917 49.1766C77.0298 50.4574 74.3261 51.4355 71.5678 52.1824L71.6969 52.0459C70.9522 55.3933 70.1141 58.7136 69.2063 62.0178C68.2949 65.3199 67.3074 68.6027 66.1891 71.8428C65.0626 75.0777 63.8313 78.2881 62.2449 81.3376C61.4396 82.8517 60.5574 84.3459 59.3881 85.6293C58.8011 86.26 58.1292 86.8506 57.3042 87.1886C56.8938 87.3522 56.4428 87.4428 55.9938 87.4064C55.5485 87.3782 55.1047 87.2178 54.7329 87.0027L54.8485 86.7871Z" fill="#3AA8A5"/>
<path d="M44.1198 21.5495C43.686 19.5365 43.4042 17.8792 43.7323 16.3443C44.148 14.399 45.2073 12.7797 46.325 11.5948C47.7131 10.123 49.5323 9.324 50.9938 9.00838C51.2917 8.94432 51.2631 8.81307 51.561 8.74848C53.0224 8.43286 54.8792 8.92869 56.7506 9.69901C58.2568 10.3193 60.1058 10.9308 61.2855 12.5323C62.2162 13.7959 62.6886 15.6131 63.1225 17.6256C61.1313 19.0245 60.712 18.0021 58.3334 18.5152C55.9553 19.0277 56.0126 19.2933 53.6344 19.8058C51.2553 20.3188 51.0495 19.6047 48.737 20.3652C46.4146 21.1292 46.5115 22.0042 44.1198 21.5495ZM85.1855 44.2032C83.5209 44.5626 81.7891 44.8803 80.4016 44.4855C78.9355 44.0688 77.5808 43.1339 76.3995 42.0574C75.3235 41.0761 74.4516 39.7496 73.5928 38.3683C72.8126 37.1147 71.9928 35.774 71.3772 34.3021C70.7954 32.9094 70.6699 31.31 70.223 29.8141C69.7813 28.3365 68.824 26.974 68.5027 25.4824C68.1636 23.9089 68.0912 22.2407 67.6084 20.6745C67.1214 19.0969 66.6839 17.4938 66.0251 16.0344C65.3324 14.498 64.3016 13.1933 63.3881 11.9141C62.4011 10.5329 61.5933 8.97661 60.3115 8.05265C58.9969 7.10473 57.3725 6.3839 55.7058 6.09223C54.2349 5.8339 52.6047 6.41775 50.8292 6.80005C49.0537 7.18286 47.4933 7.56567 46.2589 8.4063C44.8599 9.35942 43.6469 10.5214 42.8386 11.9277C42.0516 13.2974 41.6573 14.9376 41.3271 16.6021C41.0214 18.1443 40.8256 19.7891 40.8266 21.4751C40.8276 23.0761 41.2266 24.6949 41.4334 26.3329C41.6386 27.9594 41.5245 29.6521 41.8636 31.2261C42.1855 32.7178 42.35 34.2438 42.5568 35.7725C42.7651 37.3193 43.0329 38.8277 43.0756 40.3365C43.1214 41.9313 43.1105 43.4579 42.9162 44.9214C42.7026 46.5339 42.7391 48.173 42.1625 49.5105C41.5297 50.9787 40.1954 51.8985 39.0313 52.8824C37.9297 53.8136 36.8157 54.7355 35.1516 55.0938C34.6209 57.4532 35.6459 57.4569 35.8969 59.8621C36.148 62.2673 35.5704 62.3277 35.8214 64.7329C36.0724 67.1386 36.5573 67.0881 36.8084 69.4933C37.0594 71.8996 37.2177 71.8829 37.4693 74.2892C37.7198 76.6944 37.6745 76.6996 37.9256 79.1048C38.1766 81.51 37.5433 81.5767 37.7943 83.9814C38.0454 86.3871 38.7334 86.3147 38.9839 88.7199C39.2349 91.1251 39.0318 91.1465 39.2829 93.5517C39.5339 95.9579 39.311 95.9814 39.5615 98.3871C39.8125 100.794 40.0287 100.771 40.2797 103.178C40.5308 105.584 40.2532 105.613 40.5042 108.019C40.7553 110.427 40.5954 110.443 40.8469 112.851C41.098 115.258 40.4808 115.505 41.6563 117.621C42.8349 119.742 43.2787 116.648 45.9855 115.488C47.2834 114.931 49.0058 114.766 50.6568 114.068C52.0709 113.471 53.599 112.881 55.1532 112.235C56.6277 111.623 58.0178 110.704 59.5235 110.092C61.0516 109.472 62.5495 108.808 64.0126 108.233C65.6136 107.605 67.2808 107.378 68.6824 106.861C70.4719 106.202 71.8985 105.234 73.1266 104.867C74.623 104.42 76.1746 104.014 77.7417 103.661C79.286 103.314 80.923 103.38 82.485 103.113C84.0688 102.842 85.6292 102.548 87.1782 102.349C88.8001 102.141 90.397 102.136 91.9214 101.995C93.5959 101.84 95.1793 101.668 96.6579 101.578C98.4381 101.468 100.026 100.988 101.392 100.944C104.33 100.852 106.328 103.382 106.436 101.005C106.541 98.6824 105.428 98.7808 104.617 96.6022C103.805 94.4225 103.459 94.5512 102.648 92.372C101.837 90.1923 102.181 90.0642 101.369 87.885C100.557 85.7048 100.806 85.6121 99.9944 83.4329C99.1829 81.2532 99.061 81.298 98.2496 79.1188C97.4381 76.9397 97.0975 77.0662 96.286 74.8876C95.474 72.7079 95.8678 72.5616 95.0563 70.3824C94.2449 68.2032 94.3178 68.1756 93.5063 65.9959C92.6949 63.8168 92.1037 64.0365 91.2923 61.8569C90.4803 59.6756 90.9371 59.5058 90.1251 57.3251C89.3131 55.1454 89.1418 55.2089 88.3303 53.0292C87.5178 50.848 87.047 50.9813 86.5204 48.7141C85.9777 46.3777 86.6631 46.0022 85.1855 44.2032Z" fill="#94D3D4"/>
<mask id="mask0_9_2" style="mask-type:luminance" maskUnits="userSpaceOnUse" x="35" y="6" width="72" height="113">
<path d="M44.1198 21.5495C43.686 19.5365 43.4042 17.8792 43.7323 16.3443C44.148 14.399 45.2073 12.7797 46.325 11.5948C47.7131 10.123 49.5323 9.324 50.9938 9.00838C51.2917 8.94432 51.2631 8.81307 51.561 8.74848C53.0224 8.43286 54.8792 8.92869 56.7506 9.69901C58.2568 10.3193 60.1058 10.9308 61.2855 12.5323C62.2162 13.7959 62.6886 15.6131 63.1225 17.6256C61.1313 19.0245 60.712 18.0021 58.3334 18.5152C55.9553 19.0277 56.0126 19.2933 53.6344 19.8058C51.2553 20.3188 51.0495 19.6047 48.737 20.3652C46.4146 21.1292 46.5115 22.0042 44.1198 21.5495ZM85.1855 44.2032C83.5209 44.5626 81.7891 44.8803 80.4016 44.4855C78.9355 44.0688 77.5808 43.1339 76.3995 42.0574C75.3235 41.0761 74.4516 39.7496 73.5928 38.3683C72.8126 37.1147 71.9928 35.774 71.3772 34.3022C70.7954 32.9094 70.6699 31.31 70.223 29.8141C69.7813 28.3365 68.824 26.974 68.5027 25.4824C68.1636 23.9089 68.0912 22.2407 67.6084 20.6745C67.1214 19.0969 66.6839 17.4938 66.0251 16.0344C65.3324 14.498 64.3016 13.1933 63.3881 11.9141C62.4011 10.5329 61.5933 8.97661 60.3115 8.05265C58.9969 7.10473 57.3724 6.3839 55.7058 6.09223C54.2349 5.8339 52.6047 6.41775 50.8292 6.80005C49.0537 7.18286 47.4933 7.56567 46.2589 8.4063C44.8599 9.35942 43.6469 10.5214 42.8386 11.9277C42.0516 13.2974 41.6573 14.9376 41.3271 16.6021C41.0214 18.1443 40.8256 19.7891 40.8266 21.4751C40.8276 23.0761 41.2266 24.6949 41.4334 26.3329C41.6386 27.9594 41.5245 29.6522 41.8636 31.2261C42.1855 32.7178 42.35 34.2438 42.5568 35.7725C42.7651 37.3193 43.0329 38.8277 43.0756 40.3365C43.1214 41.9313 43.1105 43.4579 42.9162 44.9214C42.7026 46.5339 42.7391 48.173 42.1625 49.5105C41.5297 50.9787 40.1954 51.8985 39.0313 52.8824C37.9297 53.8136 36.8157 54.7355 35.1516 55.0938C34.6209 57.4532 35.6459 57.4569 35.8969 59.8621C36.148 62.2673 35.5704 62.3277 35.8214 64.7329C36.0724 67.1386 36.5573 67.0881 36.8084 69.4933C37.0594 71.8996 37.2177 71.8829 37.4693 74.2892C37.7198 76.6944 37.6745 76.6996 37.9256 79.1048C38.1766 81.51 37.5433 81.5767 37.7943 83.9814C38.0454 86.3871 38.7334 86.3147 38.9839 88.7199C39.2349 91.1251 39.0318 91.1465 39.2829 93.5517C39.5339 95.9579 39.311 95.9814 39.5615 98.3871C39.8125 100.794 40.0287 100.771 40.2797 103.178C40.5308 105.584 40.2532 105.613 40.5042 108.019C40.7553 110.427 40.5954 110.443 40.8469 112.851C41.098 115.258 40.4808 115.505 41.6563 117.621C42.8349 119.742 43.2787 116.648 45.9855 115.488C47.2834 114.931 49.0058 114.766 50.6568 114.068C52.0709 113.471 53.599 112.881 55.1532 112.235C56.6277 111.623 58.0178 110.704 59.5235 110.092C61.0516 109.472 62.5495 108.808 64.0126 108.233C65.6136 107.605 67.2808 107.378 68.6824 106.861C70.4719 106.202 71.8985 105.234 73.1266 104.867C74.623 104.42 76.1746 104.014 77.7417 103.661C79.286 103.314 80.923 103.38 82.485 103.113C84.0688 102.842 85.6292 102.548 87.1782 102.349C88.8001 102.141 90.397 102.136 91.9214 101.995C93.5959 101.84 95.1793 101.668 96.6579 101.578C98.4381 101.468 100.026 100.988 101.392 100.944C104.33 100.852 106.328 103.382 106.436 101.005C106.541 98.6824 105.428 98.7808 104.617 96.6022C103.805 94.4225 103.459 94.5512 102.648 92.372C101.837 90.1923 102.181 90.0642 101.369 87.885C100.557 85.7048 100.806 85.6121 99.9944 83.4329C99.1829 81.2532 99.061 81.298 98.2496 79.1189C97.4381 76.9397 97.0975 77.0663 96.286 74.8876C95.474 72.7079 95.8678 72.5616 95.0563 70.3824C94.2449 68.2032 94.3178 68.1756 93.5063 65.9959C92.6949 63.8168 92.1037 64.0366 91.2923 61.8569C90.4803 59.6756 90.9371 59.5058 90.1251 57.3251C89.3131 55.1454 89.1418 55.2089 88.3303 53.0293C87.5178 50.848 87.047 50.9813 86.5204 48.7141C85.9777 46.3777 86.6631 46.0022 85.1855 44.2032Z" fill="white"/>
</mask>
<g mask="url(#mask0_9_2)">
<path fill-rule="evenodd" clip-rule="evenodd" d="M100.304 6.56879C100.942 7.28181 100.88 8.37609 100.166 9.01359C99.4532 9.65057 98.3589 9.58859 97.722 8.87505C97.085 8.16254 97.1464 7.06827 97.86 6.43129C98.573 5.79379 99.6673 5.85577 100.304 6.56879Z" fill="white"/>
<path fill-rule="evenodd" clip-rule="evenodd" d="M106.532 13.5407C107.169 14.2542 107.107 15.3485 106.394 15.9855C105.681 16.6224 104.587 16.5605 103.95 15.8474C103.313 15.1344 103.374 14.0401 104.088 13.4032C104.801 12.7662 105.895 12.8276 106.532 13.5407Z" fill="white"/>
<path fill-rule="evenodd" clip-rule="evenodd" d="M87.1048 5.824C87.7417 6.53754 87.6803 7.63181 86.9667 8.26931C86.2537 8.90577 85.1595 8.84432 84.5225 8.13077C83.8855 7.41827 83.9469 6.32348 84.66 5.68702C85.3735 5.04952 86.4678 5.1115 87.1048 5.824Z" fill="white"/>
<path fill-rule="evenodd" clip-rule="evenodd" d="M93.3324 12.7964C93.9694 13.5094 93.9079 14.6037 93.1944 15.2412C92.4813 15.8782 91.3871 15.8162 90.7501 15.1027C90.1131 14.3902 90.1746 13.2959 90.8876 12.6589C91.6011 12.0214 92.6954 12.0834 93.3324 12.7964Z" fill="white"/>
<path fill-rule="evenodd" clip-rule="evenodd" d="M99.56 19.7683C100.197 20.4818 100.136 21.5761 99.422 22.2131C98.7089 22.8501 97.6147 22.7881 96.9777 22.0751C96.3407 21.362 96.4022 20.2678 97.1152 19.6308C97.8287 18.9938 98.923 19.0553 99.56 19.7683Z" fill="white"/>
<path fill-rule="evenodd" clip-rule="evenodd" d="M105.787 26.7402C106.425 27.4537 106.363 28.548 105.65 29.185C104.936 29.8219 103.842 29.76 103.205 29.0469C102.568 28.3339 102.63 27.2396 103.343 26.6027C104.056 25.9657 105.151 26.0271 105.787 26.7402Z" fill="white"/>
<path fill-rule="evenodd" clip-rule="evenodd" d="M73.9048 5.07973C74.5423 5.79327 74.4803 6.88754 73.7673 7.52504C73.0542 8.1615 71.96 8.10005 71.3225 7.3865C70.686 6.67348 70.7475 5.57921 71.4605 4.94275C72.174 4.30525 73.2683 4.36723 73.9048 5.07973Z" fill="white"/>
<path fill-rule="evenodd" clip-rule="evenodd" d="M80.1324 12.0516C80.7699 12.7651 80.7079 13.8594 79.9949 14.4969C79.2819 15.1334 78.1876 15.0719 77.5501 14.3584C76.9136 13.6459 76.9751 12.5511 77.6881 11.9146C78.4016 11.2771 79.4959 11.3391 80.1324 12.0516Z" fill="white"/>
<path fill-rule="evenodd" clip-rule="evenodd" d="M86.36 19.024C86.9975 19.737 86.9355 20.8313 86.2225 21.4688C85.5095 22.1058 84.4152 22.0438 83.7777 21.3303C83.1412 20.6178 83.2027 19.5235 83.9157 18.8865C84.6292 18.249 85.7235 18.311 86.36 19.024Z" fill="white"/>
<path fill-rule="evenodd" clip-rule="evenodd" d="M92.5876 25.9959C93.2251 26.7094 93.1631 27.8037 92.4501 28.4407C91.7371 29.0777 90.6428 29.0157 90.0053 28.3027C89.3688 27.5896 89.4303 26.4954 90.1433 25.8584C90.8569 25.2214 91.9511 25.2829 92.5876 25.9959Z" fill="white"/>
<path fill-rule="evenodd" clip-rule="evenodd" d="M98.8152 32.9678C99.4527 33.6813 99.3907 34.7756 98.6772 35.4131C97.9641 36.0496 96.8699 35.9881 96.2329 35.2746C95.5959 34.5615 95.6579 33.4673 96.3709 32.8303C97.0839 32.1933 98.1782 32.2553 98.8152 32.9678Z" fill="white"/>
<path fill-rule="evenodd" clip-rule="evenodd" d="M105.043 39.9397C105.68 40.6532 105.618 41.7475 104.905 42.385C104.192 43.0214 103.097 42.96 102.461 42.2464C101.824 41.5334 101.886 40.4391 102.599 39.8027C103.312 39.1652 104.406 39.2272 105.043 39.9397Z" fill="white"/>
<path fill-rule="evenodd" clip-rule="evenodd" d="M60.7058 4.33546C61.3428 5.04848 61.2813 6.14276 60.5678 6.78026C59.8547 7.41724 58.7605 7.35526 58.1235 6.64172C57.4865 5.92921 57.548 4.83494 58.261 4.19796C58.9745 3.56046 60.0688 3.62244 60.7058 4.33546Z" fill="white"/>
<path fill-rule="evenodd" clip-rule="evenodd" d="M66.9329 11.3073C67.5704 12.0204 67.5084 13.1146 66.7954 13.7521C66.0818 14.3891 64.9876 14.3271 64.3506 13.6136C63.7136 12.9011 63.7756 11.8068 64.4886 11.1698C65.2016 10.5323 66.2954 10.5943 66.9329 11.3073Z" fill="white"/>
<path fill-rule="evenodd" clip-rule="evenodd" d="M73.1605 18.2792C73.798 18.9928 73.736 20.087 73.023 20.724C72.3094 21.361 71.2152 21.299 70.5782 20.586C69.9417 19.873 70.0032 18.7787 70.7162 18.1417C71.4292 17.5047 72.524 17.5662 73.1605 18.2792Z" fill="white"/>
<path fill-rule="evenodd" clip-rule="evenodd" d="M79.3881 25.2511C80.0256 25.9646 79.9636 27.0589 79.2506 27.6964C78.5371 28.3329 77.4428 28.2714 76.8058 27.5579C76.1693 26.8449 76.2308 25.7506 76.9438 25.1141C77.6568 24.4766 78.7516 24.5386 79.3881 25.2511Z" fill="white"/>
<path fill-rule="evenodd" clip-rule="evenodd" d="M85.6157 32.223C86.2527 32.9365 86.1912 34.0308 85.4777 34.6683C84.7647 35.3047 83.6704 35.2433 83.0334 34.5298C82.3964 33.8173 82.4579 32.7225 83.1709 32.086C83.8845 31.4485 84.9787 31.5105 85.6157 32.223Z" fill="white"/>
<path fill-rule="evenodd" clip-rule="evenodd" d="M91.8433 39.1954C92.4803 39.9084 92.4188 41.0027 91.7053 41.6402C90.9923 42.2772 89.898 42.2152 89.261 41.5016C88.624 40.7891 88.6855 39.6949 89.3985 39.0579C90.1121 38.4204 91.2063 38.4824 91.8433 39.1954Z" fill="white"/>
<path fill-rule="evenodd" clip-rule="evenodd" d="M98.0709 46.1673C98.7079 46.8808 98.6464 47.9751 97.9329 48.6121C97.2199 49.249 96.1256 49.1871 95.4886 48.474C94.8516 47.761 94.9131 46.6668 95.6261 46.0298C96.3397 45.3928 97.4339 45.4542 98.0709 46.1673Z" fill="white"/>
<path fill-rule="evenodd" clip-rule="evenodd" d="M104.299 53.1397C104.936 53.8527 104.874 54.947 104.161 55.5845C103.447 56.2214 102.353 56.1595 101.716 55.4459C101.079 54.7334 101.141 53.6391 101.854 53.0022C102.567 52.3647 103.662 52.4266 104.299 53.1397Z" fill="white"/>
<path fill-rule="evenodd" clip-rule="evenodd" d="M47.5058 3.59067C48.1433 4.30421 48.0813 5.39848 47.3678 6.03598C46.6547 6.67244 45.5605 6.61099 44.9235 5.89744C44.2865 5.18442 44.348 4.09015 45.0615 3.45369C45.7745 2.81619 46.8688 2.87817 47.5058 3.59067Z" fill="white"/>
<path fill-rule="evenodd" clip-rule="evenodd" d="M53.7334 10.5631C54.3709 11.2761 54.3089 12.3704 53.5959 13.0079C52.8829 13.6448 51.7886 13.5829 51.1511 12.8693C50.5141 12.1568 50.5756 11.0625 51.2891 10.4256C52.0026 9.78806 53.0969 9.85004 53.7334 10.5631Z" fill="white"/>
<path fill-rule="evenodd" clip-rule="evenodd" d="M59.961 17.5349C60.5985 18.248 60.5365 19.3428 59.823 19.9797C59.11 20.6167 58.0157 20.5547 57.3787 19.8417C56.7417 19.1287 56.8032 18.0344 57.5167 17.3974C58.2297 16.7605 59.324 16.8219 59.961 17.5349Z" fill="white"/>
<path fill-rule="evenodd" clip-rule="evenodd" d="M66.1886 24.5068C66.8261 25.2204 66.7636 26.3146 66.0506 26.9516C65.3376 27.5886 64.2433 27.5266 63.6063 26.8136C62.9693 26.1006 63.0308 25.0063 63.7443 24.3693C64.4574 23.7323 65.5516 23.7938 66.1886 24.5068Z" fill="white"/>
<path fill-rule="evenodd" clip-rule="evenodd" d="M72.4162 31.4787C73.0537 32.1922 72.9917 33.2865 72.2782 33.924C71.5652 34.5605 70.4709 34.499 69.8339 33.7855C69.1969 33.0725 69.2584 31.9782 69.9719 31.3417C70.685 30.7042 71.7792 30.7662 72.4162 31.4787Z" fill="white"/>
<path fill-rule="evenodd" clip-rule="evenodd" d="M78.6438 38.4511C79.2808 39.1641 79.2193 40.2584 78.5058 40.8959C77.7928 41.5329 76.6985 41.4709 76.0615 40.7574C75.4245 40.0449 75.486 38.9501 76.199 38.3136C76.9126 37.6761 78.0068 37.7381 78.6438 38.4511Z" fill="white"/>
<path fill-rule="evenodd" clip-rule="evenodd" d="M84.8714 45.423C85.5084 46.136 85.447 47.2303 84.7334 47.8678C84.0204 48.5048 82.9261 48.4428 82.2891 47.7292C81.6522 47.0167 81.7136 45.9225 82.4266 45.2855C83.1402 44.648 84.2345 44.71 84.8714 45.423Z" fill="white"/>
<path fill-rule="evenodd" clip-rule="evenodd" d="M91.099 52.3949C91.736 53.1084 91.6746 54.2027 90.961 54.8397C90.248 55.4766 89.1537 55.4147 88.5167 54.7016C87.8798 53.9886 87.9412 52.8944 88.6542 52.2574C89.3678 51.6204 90.4621 51.6818 91.099 52.3949Z" fill="white"/>
<path fill-rule="evenodd" clip-rule="evenodd" d="M97.3267 59.3673C97.9636 60.0803 97.9022 61.1746 97.1886 61.8121C96.4756 62.449 95.3813 62.3876 94.7444 61.6735C94.1074 60.9605 94.1688 59.8668 94.8819 59.2298C95.5954 58.5923 96.6897 58.6543 97.3267 59.3673Z" fill="white"/>
<path fill-rule="evenodd" clip-rule="evenodd" d="M103.554 66.3386C104.191 67.0527 104.129 68.1464 103.416 68.7839C102.703 69.4204 101.608 69.359 100.971 68.6454C100.335 67.9324 100.396 66.8381 101.109 66.2017C101.822 65.5642 102.917 65.6256 103.554 66.3386Z" fill="white"/>
<path fill-rule="evenodd" clip-rule="evenodd" d="M40.5339 9.81827C41.1709 10.5318 41.1094 11.6261 40.3959 12.2636C39.6829 12.9 38.5886 12.8386 37.9516 12.125C37.3146 11.412 37.3761 10.3177 38.0891 9.68129C38.8026 9.04379 39.8969 9.10577 40.5339 9.81827Z" fill="white"/>
<path fill-rule="evenodd" clip-rule="evenodd" d="M46.7615 16.7907C47.3985 17.5037 47.337 18.598 46.6235 19.2355C45.9105 19.8724 44.8162 19.8105 44.1792 19.0969C43.5422 18.3844 43.6037 17.2902 44.3167 16.6532C45.0303 16.0157 46.1245 16.0777 46.7615 16.7907Z" fill="white"/>
<path fill-rule="evenodd" clip-rule="evenodd" d="M52.9891 23.7625C53.6261 24.4756 53.5646 25.5704 52.8511 26.2073C52.1381 26.8443 51.0433 26.7823 50.4063 26.0693C49.7698 25.3563 49.8313 24.262 50.5443 23.625C51.2579 22.9881 52.3521 23.0495 52.9891 23.7625Z" fill="white"/>
<path fill-rule="evenodd" clip-rule="evenodd" d="M59.2167 30.7344C59.8537 31.448 59.7922 32.5423 59.0787 33.1792C58.3657 33.8162 57.2714 33.7542 56.6344 33.0412C55.9975 32.3282 56.0589 31.2339 56.7719 30.5969C57.4855 29.96 58.5797 30.0214 59.2167 30.7344Z" fill="white"/>
<path fill-rule="evenodd" clip-rule="evenodd" d="M65.4443 37.7063C66.0813 38.4199 66.0193 39.5141 65.3063 40.1516C64.5933 40.7881 63.499 40.7266 62.862 40.0131C62.2251 39.3001 62.2865 38.2058 62.9995 37.5693C63.7131 36.9318 64.8074 36.9938 65.4443 37.7063Z" fill="white"/>
<path fill-rule="evenodd" clip-rule="evenodd" d="M71.6714 44.6787C72.3089 45.3917 72.2469 46.486 71.5339 47.1235C70.8209 47.7605 69.7261 47.6985 69.0891 46.985C68.4527 46.2725 68.5141 45.1782 69.2272 44.5412C69.9407 43.9037 71.035 43.9657 71.6714 44.6787Z" fill="white"/>
<path fill-rule="evenodd" clip-rule="evenodd" d="M77.899 51.6506C78.5365 52.3636 78.4746 53.4579 77.7615 54.0954C77.0485 54.7324 75.9537 54.6704 75.3167 53.9569C74.6803 53.2444 74.7417 52.1501 75.4548 51.5131C76.1683 50.8756 77.2626 50.9376 77.899 51.6506Z" fill="white"/>
<path fill-rule="evenodd" clip-rule="evenodd" d="M84.1266 58.6225C84.7641 59.336 84.7022 60.4303 83.9891 61.0673C83.2761 61.7042 82.1813 61.6428 81.5443 60.9292C80.9079 60.2162 80.9693 59.1219 81.6824 58.485C82.3959 57.848 83.4902 57.9095 84.1266 58.6225Z" fill="white"/>
<path fill-rule="evenodd" clip-rule="evenodd" d="M90.3543 65.5944C90.9918 66.3079 90.9298 67.4017 90.2168 68.0392C89.5037 68.6761 88.4095 68.6147 87.772 67.9006C87.1355 67.1876 87.197 66.0938 87.91 65.4569C88.6235 64.8194 89.7178 64.8813 90.3543 65.5944Z" fill="white"/>
<path fill-rule="evenodd" clip-rule="evenodd" d="M96.5819 72.5662C97.2194 73.2803 97.1574 74.374 96.4438 75.0115C95.7308 75.648 94.6366 75.5866 93.9996 74.873C93.3626 74.16 93.424 73.0657 94.1376 72.4293C94.8506 71.7918 95.9449 71.8532 96.5819 72.5662Z" fill="white"/>
<path fill-rule="evenodd" clip-rule="evenodd" d="M102.809 79.5386C103.447 80.2522 103.385 81.3465 102.671 81.984C101.958 82.6204 100.864 82.559 100.227 81.8459C99.5902 81.1324 99.6517 80.0381 100.365 79.4017C101.078 78.7642 102.172 78.8256 102.809 79.5386Z" fill="white"/>
<path fill-rule="evenodd" clip-rule="evenodd" d="M109.037 86.5105C109.675 87.2241 109.613 88.3183 108.899 88.9553C108.186 89.5923 107.092 89.5308 106.455 88.8173C105.818 88.1038 105.879 87.01 106.593 86.373C107.306 85.7361 108.4 85.7975 109.037 86.5105Z" fill="white"/>
<path fill-rule="evenodd" clip-rule="evenodd" d="M39.7891 23.0178C40.4266 23.7313 40.3646 24.8256 39.6511 25.4626C38.9381 26.0995 37.8438 26.0381 37.2068 25.3245C36.5698 24.6115 36.6313 23.5172 37.3448 22.8803C38.0579 22.2433 39.1521 22.3053 39.7891 23.0178Z" fill="white"/>
<path fill-rule="evenodd" clip-rule="evenodd" d="M46.0167 29.9896C46.6542 30.7032 46.5922 31.7975 45.8787 32.435C45.1657 33.0714 44.0714 33.01 43.4344 32.2964C42.7974 31.5834 42.8594 30.4891 43.5724 29.8527C44.2855 29.2152 45.3797 29.2771 46.0167 29.9896Z" fill="white"/>
<path fill-rule="evenodd" clip-rule="evenodd" d="M52.2443 36.962C52.8818 37.6756 52.8198 38.7699 52.1068 39.4068C51.3938 40.0438 50.299 39.9818 49.662 39.2688C49.0251 38.5558 49.087 37.4615 49.8001 36.8245C50.5131 36.1876 51.6079 36.249 52.2443 36.962Z" fill="white"/>
<path fill-rule="evenodd" clip-rule="evenodd" d="M58.4724 43.9339C59.1094 44.6475 59.048 45.7417 58.3344 46.3792C57.6214 47.0157 56.5271 46.9542 55.8902 46.2407C55.2532 45.5277 55.3146 44.4334 56.0277 43.797C56.7412 43.1595 57.8355 43.2214 58.4724 43.9339Z" fill="white"/>
<path fill-rule="evenodd" clip-rule="evenodd" d="M64.6995 50.9063C65.337 51.6193 65.2751 52.7136 64.5615 53.3511C63.8485 53.9881 62.7542 53.9261 62.1172 53.2126C61.4803 52.5001 61.5422 51.4058 62.2553 50.7688C62.9683 50.1313 64.0626 50.1933 64.6995 50.9063Z" fill="white"/>
<path fill-rule="evenodd" clip-rule="evenodd" d="M70.9272 57.8777C71.5647 58.5912 71.5027 59.6855 70.7891 60.323C70.0761 60.9595 68.9818 60.898 68.3449 60.1845C67.7079 59.4714 67.7699 58.3772 68.4829 57.7407C69.1959 57.1032 70.2902 57.1652 70.9272 57.8777Z" fill="white"/>
<path fill-rule="evenodd" clip-rule="evenodd" d="M77.1548 64.8501C77.7923 65.5636 77.7303 66.6579 77.0167 67.2949C76.3037 67.9319 75.2094 67.8704 74.5725 67.1569C73.9355 66.4438 73.9975 65.3496 74.7105 64.7126C75.4235 64.0756 76.5178 64.1371 77.1548 64.8501Z" fill="white"/>
<path fill-rule="evenodd" clip-rule="evenodd" d="M83.3824 71.822C84.0199 72.5355 83.9579 73.6293 83.2449 74.2668C82.5313 74.9037 81.4371 74.8423 80.8001 74.1282C80.1631 73.4152 80.2251 72.3215 80.9381 71.6845C81.6511 71.047 82.7459 71.109 83.3824 71.822Z" fill="white"/>
<path fill-rule="evenodd" clip-rule="evenodd" d="M89.61 78.7939C90.247 79.5079 90.1855 80.6017 89.472 81.2397C88.7589 81.8756 87.6647 81.8147 87.0277 81.1006C86.3907 80.3876 86.4522 79.2933 87.1652 78.6569C87.8787 78.0194 88.973 78.0808 89.61 78.7939Z" fill="white"/>
<path fill-rule="evenodd" clip-rule="evenodd" d="M95.8376 85.7657C96.4746 86.4793 96.4131 87.5735 95.6996 88.211C94.9865 88.8475 93.8923 88.7861 93.2553 88.0725C92.6183 87.3595 92.6798 86.2652 93.3928 85.6288C94.1063 84.9913 95.2006 85.0527 95.8376 85.7657Z" fill="white"/>
<path fill-rule="evenodd" clip-rule="evenodd" d="M102.065 92.7381C102.702 93.4517 102.641 94.5459 101.927 95.1829C101.214 95.8199 100.12 95.7584 99.4829 95.0449C98.8459 94.3319 98.9074 93.2376 99.6204 92.6006C100.334 91.9637 101.428 92.0251 102.065 92.7381Z" fill="white"/>
<path fill-rule="evenodd" clip-rule="evenodd" d="M108.293 99.71C108.93 100.424 108.868 101.517 108.155 102.155C107.442 102.792 106.347 102.73 105.711 102.016C105.074 101.303 105.135 100.209 105.848 99.5725C106.562 98.935 107.656 98.997 108.293 99.71Z" fill="white"/>
<path fill-rule="evenodd" clip-rule="evenodd" d="M39.0448 36.2172C39.6818 36.9308 39.6204 38.0251 38.9068 38.6626C38.1938 39.299 37.0995 39.2376 36.4625 38.524C35.8256 37.811 35.887 36.7167 36.6 36.0803C37.3136 35.4428 38.4079 35.5047 39.0448 36.2172Z" fill="white"/>
<path fill-rule="evenodd" clip-rule="evenodd" d="M45.2724 43.1897C45.9094 43.9027 45.848 44.9969 45.1344 45.6344C44.4214 46.2714 43.3271 46.2094 42.6901 45.4959C42.0532 44.7834 42.1146 43.6891 42.8276 43.0521C43.5412 42.4146 44.6355 42.4766 45.2724 43.1897Z" fill="white"/>
<path fill-rule="evenodd" clip-rule="evenodd" d="M51.5 50.1615C52.1376 50.8751 52.0756 51.9693 51.3625 52.6063C50.649 53.2433 49.5547 53.1813 48.9178 52.4683C48.2808 51.7553 48.3422 50.661 49.0553 50.024C49.7688 49.3871 50.8631 49.4485 51.5 50.1615Z" fill="white"/>
<path fill-rule="evenodd" clip-rule="evenodd" d="M57.7277 57.1339C58.3646 57.847 58.3032 58.9412 57.5896 59.5787C56.8766 60.2157 55.7824 60.1537 55.1454 59.4402C54.5084 58.7277 54.5698 57.6334 55.2829 56.9964C55.9964 56.3589 57.0907 56.4209 57.7277 57.1339Z" fill="white"/>
<path fill-rule="evenodd" clip-rule="evenodd" d="M63.9553 64.1053C64.5928 64.8188 64.5308 65.9131 63.8173 66.5506C63.1042 67.1871 62.01 67.1256 61.373 66.4121C60.736 65.699 60.7975 64.6048 61.511 63.9683C62.224 63.3308 63.3183 63.3923 63.9553 64.1053Z" fill="white"/>
<path fill-rule="evenodd" clip-rule="evenodd" d="M70.1829 71.0777C70.8204 71.7912 70.7584 72.8855 70.0449 73.5225C69.3318 74.1595 68.2376 74.098 67.6006 73.3845C66.9636 72.6715 67.0251 71.5772 67.7386 70.9402C68.4516 70.3032 69.5459 70.3647 70.1829 71.0777Z" fill="white"/>
<path fill-rule="evenodd" clip-rule="evenodd" d="M76.4105 78.0496C77.048 78.7631 76.986 79.8574 76.2725 80.4944C75.5595 81.1319 74.4652 81.0699 73.8282 80.3564C73.1912 79.6428 73.2527 78.5491 73.9662 77.9121C74.6792 77.2751 75.7735 77.3366 76.4105 78.0496Z" fill="white"/>
<path fill-rule="evenodd" clip-rule="evenodd" d="M82.6376 85.022C83.2751 85.7355 83.2131 86.8293 82.5001 87.4668C81.7871 88.1038 80.6928 88.0418 80.0553 87.3282C79.4188 86.6152 79.4803 85.5215 80.1933 84.8845C80.9069 84.247 82.0011 84.3085 82.6376 85.022Z" fill="white"/>
<path fill-rule="evenodd" clip-rule="evenodd" d="M88.8657 91.9933C89.5027 92.7069 89.4407 93.8011 88.7277 94.4386C88.0147 95.0751 86.9204 95.0137 86.2829 94.3001C85.6464 93.5871 85.7079 92.4928 86.4209 91.8564C87.1345 91.2189 88.2287 91.2803 88.8657 91.9933Z" fill="white"/>
<path fill-rule="evenodd" clip-rule="evenodd" d="M95.0933 98.9657C95.7303 99.6793 95.6688 100.774 94.9553 101.411C94.2423 102.048 93.148 101.986 92.511 101.273C91.874 100.559 91.9355 99.4652 92.6485 98.8282C93.3621 98.1913 94.4563 98.2527 95.0933 98.9657Z" fill="white"/>
<path fill-rule="evenodd" clip-rule="evenodd" d="M101.32 105.938C101.958 106.651 101.896 107.745 101.182 108.382C100.469 109.019 99.3751 108.958 98.7381 108.244C98.1011 107.531 98.1631 106.437 98.8761 105.8C99.5892 105.163 100.683 105.225 101.32 105.938Z" fill="white"/>
<path fill-rule="evenodd" clip-rule="evenodd" d="M107.548 112.909C108.186 113.624 108.124 114.717 107.41 115.355C106.697 115.991 105.603 115.93 104.966 115.216C104.329 114.503 104.391 113.409 105.104 112.773C105.817 112.135 106.911 112.196 107.548 112.909Z" fill="white"/>
<path fill-rule="evenodd" clip-rule="evenodd" d="M38.3006 49.4173C38.9375 50.1303 38.8761 51.2246 38.1625 51.8621C37.4495 52.499 36.3552 52.4371 35.7183 51.7235C35.0813 51.011 35.1427 49.9167 35.8558 49.2798C36.5693 48.6423 37.6636 48.7042 38.3006 49.4173Z" fill="white"/>
<path fill-rule="evenodd" clip-rule="evenodd" d="M44.5282 56.3892C45.1652 57.1027 45.1037 58.197 44.3902 58.8339C43.6771 59.4709 42.5829 59.4089 41.9459 58.6959C41.3089 57.9829 41.3704 56.8886 42.0834 56.2516C42.7969 55.6147 43.8912 55.6761 44.5282 56.3892Z" fill="white"/>
<path fill-rule="evenodd" clip-rule="evenodd" d="M50.7553 63.3616C51.3928 64.0751 51.3313 65.1688 50.6178 65.8063C49.9042 66.4433 48.81 66.3813 48.173 65.6678C47.536 64.9548 47.598 63.861 48.311 63.2241C49.024 62.5866 50.1183 62.648 50.7553 63.3616Z" fill="white"/>
<path fill-rule="evenodd" clip-rule="evenodd" d="M56.9834 70.3329C57.6204 71.0464 57.5589 72.1407 56.8454 72.7782C56.1323 73.4147 55.0381 73.3532 54.4011 72.6397C53.7641 71.9267 53.8256 70.8324 54.5386 70.1959C55.2521 69.5584 56.3464 69.6199 56.9834 70.3329Z" fill="white"/>
<path fill-rule="evenodd" clip-rule="evenodd" d="M63.211 77.3053C63.848 78.0188 63.7865 79.1131 63.073 79.7501C62.36 80.3871 61.2657 80.3256 60.6287 79.6121C59.9917 78.8991 60.0532 77.8048 60.7662 77.1678C61.4798 76.5308 62.574 76.5923 63.211 77.3053Z" fill="white"/>
<path fill-rule="evenodd" clip-rule="evenodd" d="M69.4386 84.2772C70.0756 84.9907 70.0141 86.085 69.3006 86.722C68.5876 87.3589 67.4933 87.2975 66.8563 86.584C66.2193 85.8704 66.2808 84.7767 66.9938 84.1402C67.7074 83.5027 68.8016 83.5642 69.4386 84.2772Z" fill="white"/>
<path fill-rule="evenodd" clip-rule="evenodd" d="M75.6657 91.2496C76.3032 91.9631 76.2412 93.0569 75.5282 93.6944C74.8147 94.3314 73.7204 94.2694 73.0834 93.5558C72.447 92.8428 72.5084 91.7491 73.2214 91.1121C73.935 90.4746 75.0292 90.5361 75.6657 91.2496Z" fill="white"/>
<path fill-rule="evenodd" clip-rule="evenodd" d="M81.8933 98.2209C82.5308 98.9345 82.4688 100.029 81.7558 100.666C81.0423 101.303 79.948 101.241 79.311 100.528C78.6746 99.8147 78.736 98.7204 79.449 98.084C80.1626 97.4465 81.2568 97.5079 81.8933 98.2209Z" fill="white"/>
<path fill-rule="evenodd" clip-rule="evenodd" d="M88.1209 105.193C88.7584 105.907 88.6964 107.001 87.9834 107.638C87.2704 108.275 86.1756 108.214 85.5386 107.5C84.9022 106.787 84.9636 105.693 85.6766 105.056C86.3902 104.419 87.4845 104.48 88.1209 105.193Z" fill="white"/>
<path fill-rule="evenodd" clip-rule="evenodd" d="M94.3485 112.165C94.9855 112.879 94.924 113.973 94.2105 114.61C93.4975 115.247 92.4032 115.186 91.7662 114.471C91.1292 113.758 91.1907 112.665 91.9037 112.028C92.6173 111.39 93.7115 111.452 94.3485 112.165Z" fill="white"/>
<path fill-rule="evenodd" clip-rule="evenodd" d="M37.5558 62.6168C38.1933 63.3303 38.1313 64.4246 37.4183 65.0615C36.7052 65.6985 35.611 65.6371 34.9735 64.9235C34.337 64.2105 34.3985 63.1162 35.1115 62.4792C35.825 61.8423 36.9193 61.9037 37.5558 62.6168Z" fill="white"/>
<path fill-rule="evenodd" clip-rule="evenodd" d="M43.7834 69.5886C44.4209 70.3022 44.3589 71.3959 43.6454 72.0334C42.9323 72.6704 41.8381 72.609 41.2011 71.8949C40.5641 71.1819 40.6256 70.0881 41.3391 69.4511C42.0521 68.8136 43.1464 68.8756 43.7834 69.5886Z" fill="white"/>
<path fill-rule="evenodd" clip-rule="evenodd" d="M50.011 76.5605C50.6485 77.2746 50.5865 78.3683 49.873 79.0058C49.1599 79.6423 48.0657 79.5808 47.4287 78.8673C46.7917 78.1543 46.8532 77.06 47.5667 76.4235C48.2797 75.786 49.374 75.8475 50.011 76.5605Z" fill="white"/>
<path fill-rule="evenodd" clip-rule="evenodd" d="M56.2386 83.5324C56.8761 84.2459 56.8141 85.3402 56.1011 85.9772C55.3881 86.6142 54.2938 86.5527 53.6563 85.8392C53.0198 85.1262 53.0813 84.0324 53.7943 83.3949C54.5079 82.7579 55.6021 82.8194 56.2386 83.5324Z" fill="white"/>
<path fill-rule="evenodd" clip-rule="evenodd" d="M62.4662 90.5048C63.1037 91.2183 63.0417 92.3126 62.3282 92.9496C61.6152 93.5866 60.5209 93.5251 59.8839 92.8116C59.2469 92.098 59.3084 91.0043 60.0219 90.3673C60.735 89.7303 61.8292 89.7918 62.4662 90.5048Z" fill="white"/>
<path fill-rule="evenodd" clip-rule="evenodd" d="M68.6938 97.4767C69.3313 98.1902 69.2693 99.284 68.5558 99.9215C67.8428 100.558 66.748 100.496 66.1115 99.7829C65.4745 99.0699 65.5365 97.9762 66.2495 97.3392C66.9626 96.7017 68.0568 96.7631 68.6938 97.4767Z" fill="white"/>
<path fill-rule="evenodd" clip-rule="evenodd" d="M74.9214 104.449C75.5589 105.162 75.4969 106.256 74.7834 106.894C74.0704 107.53 72.9761 107.469 72.3391 106.755C71.7022 106.042 71.7641 104.948 72.4772 104.312C73.1902 103.674 74.2844 103.736 74.9214 104.449Z" fill="white"/>
<path fill-rule="evenodd" clip-rule="evenodd" d="M81.149 111.42C81.7865 112.134 81.7246 113.228 81.011 113.865C80.298 114.502 79.2037 114.441 78.5667 113.727C77.9298 113.014 77.9917 111.92 78.7048 111.283C79.4178 110.646 80.5121 110.707 81.149 111.42Z" fill="white"/>
<path fill-rule="evenodd" clip-rule="evenodd" d="M87.3766 118.393C88.0136 119.106 87.9522 120.2 87.2386 120.838C86.5256 121.475 85.4313 121.413 84.7944 120.7C84.1574 119.986 84.2188 118.892 84.9319 118.255C85.6454 117.618 86.7397 117.68 87.3766 118.393Z" fill="white"/>
<path fill-rule="evenodd" clip-rule="evenodd" d="M36.8115 75.8162C37.4485 76.5298 37.387 77.6235 36.6735 78.261C35.9605 78.898 34.8662 78.8366 34.2292 78.1225C33.5922 77.4095 33.6537 76.3157 34.3667 75.6788C35.0803 75.0413 36.1745 75.1032 36.8115 75.8162Z" fill="white"/>
<path fill-rule="evenodd" clip-rule="evenodd" d="M43.0391 82.7886C43.6761 83.5027 43.6146 84.5959 42.9011 85.2334C42.1881 85.8699 41.0938 85.8084 40.4568 85.0949C39.8198 84.3819 39.8813 83.2876 40.5943 82.6517C41.3079 82.0142 42.4021 82.0751 43.0391 82.7886Z" fill="white"/>
<path fill-rule="evenodd" clip-rule="evenodd" d="M49.2667 89.76C49.9037 90.4735 49.8422 91.5678 49.1287 92.2053C48.4157 92.8418 47.3214 92.7803 46.6844 92.0668C46.0474 91.3538 46.1089 90.2595 46.8219 89.623C47.5355 88.9855 48.6297 89.047 49.2667 89.76Z" fill="white"/>
<path fill-rule="evenodd" clip-rule="evenodd" d="M55.4943 96.7324C56.1313 97.4459 56.0698 98.5402 55.3563 99.1772C54.6433 99.8142 53.549 99.7527 52.912 99.0392C52.2751 98.3256 52.3365 97.2319 53.0495 96.5949C53.7631 95.9579 54.8573 96.0194 55.4943 96.7324Z" fill="white"/>
<path fill-rule="evenodd" clip-rule="evenodd" d="M61.7219 103.704C62.3589 104.418 62.2975 105.512 61.5839 106.149C60.8709 106.786 59.7766 106.724 59.1396 106.011C58.5027 105.298 58.5641 104.204 59.2771 103.567C59.9907 102.929 61.085 102.991 61.7219 103.704Z" fill="white"/>
<path fill-rule="evenodd" clip-rule="evenodd" d="M67.9495 110.676C68.5865 111.39 68.5251 112.484 67.8115 113.121C67.098 113.758 66.0037 113.696 65.3672 112.983C64.7303 112.27 64.7917 111.176 65.5047 110.539C66.2183 109.902 67.3126 109.963 67.9495 110.676Z" fill="white"/>
<path fill-rule="evenodd" clip-rule="evenodd" d="M74.1772 117.648C74.8141 118.362 74.7527 119.456 74.0391 120.093C73.3261 120.73 72.2318 120.668 71.5949 119.955C70.9579 119.242 71.0193 118.148 71.7324 117.511C72.4459 116.874 73.5402 116.935 74.1772 117.648Z" fill="white"/>
<path fill-rule="evenodd" clip-rule="evenodd" d="M36.0667 89.0157C36.7042 89.7298 36.6422 90.8235 35.9292 91.461C35.2162 92.0975 34.1219 92.036 33.4844 91.3225C32.848 90.6095 32.9094 89.5152 33.6224 88.8788C34.336 88.2413 35.4303 88.3027 36.0667 89.0157Z" fill="white"/>
<path fill-rule="evenodd" clip-rule="evenodd" d="M42.2948 95.9876C42.9318 96.7012 42.8704 97.7954 42.1568 98.4329C41.4438 99.0694 40.3495 99.0079 39.7125 98.2944C39.0756 97.5814 39.137 96.4871 39.85 95.8506C40.5636 95.2131 41.6579 95.2746 42.2948 95.9876Z" fill="white"/>
<path fill-rule="evenodd" clip-rule="evenodd" d="M48.5219 102.96C49.1594 103.674 49.0974 104.768 48.3839 105.405C47.6709 106.042 46.5766 105.98 45.9396 105.267C45.3027 104.554 45.3646 103.46 46.0777 102.823C46.7907 102.186 47.8849 102.247 48.5219 102.96Z" fill="white"/>
<path fill-rule="evenodd" clip-rule="evenodd" d="M54.7501 109.932C55.387 110.645 55.3256 111.739 54.612 112.377C53.899 113.014 52.8047 112.952 52.1678 112.238C51.5308 111.525 51.5922 110.431 52.3053 109.794C53.0188 109.157 54.1131 109.219 54.7501 109.932Z" fill="white"/>
<path fill-rule="evenodd" clip-rule="evenodd" d="M60.9777 116.904C61.6146 117.618 61.5532 118.712 60.8396 119.349C60.1266 119.986 59.0324 119.924 58.3954 119.211C57.7584 118.498 57.8198 117.403 58.5329 116.767C59.2464 116.129 60.3407 116.191 60.9777 116.904Z" fill="white"/>
<path fill-rule="evenodd" clip-rule="evenodd" d="M35.3224 102.215C35.9599 102.929 35.898 104.023 35.1849 104.661C34.4719 105.297 33.3771 105.236 32.7401 104.522C32.1037 103.809 32.1651 102.715 32.8782 102.078C33.5917 101.441 34.686 101.502 35.3224 102.215Z" fill="white"/>
<path fill-rule="evenodd" clip-rule="evenodd" d="M41.55 109.188C42.187 109.901 42.1256 110.995 41.412 111.632C40.699 112.269 39.6047 112.208 38.9678 111.494C38.3308 110.781 38.3922 109.687 39.1053 109.05C39.8188 108.413 40.9131 108.475 41.55 109.188Z" fill="white"/>
<path fill-rule="evenodd" clip-rule="evenodd" d="M47.7777 116.16C48.4152 116.873 48.3532 117.967 47.6396 118.604C46.9266 119.241 45.8323 119.18 45.1954 118.466C44.5584 117.753 44.6198 116.659 45.3334 116.022C46.0464 115.385 47.1407 115.446 47.7777 116.16Z" fill="white"/>
<path fill-rule="evenodd" clip-rule="evenodd" d="M34.5782 115.415C35.2151 116.128 35.1537 117.223 34.4401 117.86C33.7271 118.496 32.6329 118.435 31.9959 117.721C31.3589 117.008 31.4204 115.914 32.1334 115.277C32.8469 114.64 33.9412 114.702 34.5782 115.415Z" fill="white"/>
<path fill-rule="evenodd" clip-rule="evenodd" d="M60.7058 4.33493C61.3428 5.04848 61.2813 6.14275 60.5678 6.77973C59.8547 7.41671 58.7605 7.35473 58.1235 6.64171C57.4865 5.92869 57.548 4.83441 58.261 4.19743C58.9745 3.56045 60.0688 3.62191 60.7058 4.33493Z" fill="white"/>
<path fill-rule="evenodd" clip-rule="evenodd" d="M66.9329 11.3068C67.5704 12.0204 67.5084 13.1146 66.7954 13.7521C66.0818 14.3886 64.9876 14.3271 64.3506 13.6136C63.7136 12.9006 63.7756 11.8063 64.4886 11.1698C65.2016 10.5323 66.2954 10.5943 66.9329 11.3068Z" fill="white"/>
<path fill-rule="evenodd" clip-rule="evenodd" d="M73.1605 18.2792C73.798 18.9928 73.736 20.087 73.023 20.724C72.3094 21.361 71.2152 21.299 70.5782 20.586C69.9417 19.873 70.0032 18.7787 70.7162 18.1417C71.4292 17.5047 72.524 17.5662 73.1605 18.2792Z" fill="white"/>
<path fill-rule="evenodd" clip-rule="evenodd" d="M47.5058 3.59066C48.1433 4.30369 48.0813 5.39848 47.3678 6.03546C46.6547 6.67244 45.5605 6.61046 44.9235 5.89744C44.2865 5.18442 44.348 4.09014 45.0615 3.45316C45.7745 2.81618 46.8688 2.87764 47.5058 3.59066Z" fill="white"/>
<path fill-rule="evenodd" clip-rule="evenodd" d="M53.7334 10.5625C54.3709 11.2761 54.3089 12.3704 53.5959 13.0073C52.8829 13.6443 51.7886 13.5823 51.1511 12.8693C50.5141 12.1563 50.5756 11.062 51.2891 10.425C52.0026 9.78807 53.0969 9.84953 53.7334 10.5625Z" fill="white"/>
<path fill-rule="evenodd" clip-rule="evenodd" d="M59.961 17.5344C60.5985 18.248 60.5365 19.3422 59.823 19.9797C59.11 20.6162 58.0157 20.5547 57.3787 19.8412C56.7417 19.1282 56.8032 18.0339 57.5167 17.3975C58.2297 16.7599 59.324 16.8219 59.961 17.5344Z" fill="white"/>
<path fill-rule="evenodd" clip-rule="evenodd" d="M66.1886 24.5068C66.8261 25.2198 66.7636 26.3141 66.0506 26.9516C65.3376 27.5886 64.2433 27.5266 63.6063 26.8131C62.9693 26.1006 63.0308 25.0063 63.7443 24.3693C64.4574 23.7318 65.5516 23.7938 66.1886 24.5068Z" fill="white"/>
<path fill-rule="evenodd" clip-rule="evenodd" d="M40.5339 9.81827C41.1709 10.5318 41.1094 11.6261 40.3959 12.2631C39.6829 12.9 38.5886 12.8381 37.9516 12.125C37.3146 11.412 37.3761 10.3178 38.0891 9.68077C38.8026 9.04379 39.8969 9.10525 40.5339 9.81827Z" fill="white"/>
<path fill-rule="evenodd" clip-rule="evenodd" d="M46.7615 16.7902C47.3985 17.5037 47.337 18.598 46.6235 19.2349C45.9105 19.8719 44.8162 19.8099 44.1792 19.0969C43.5422 18.3839 43.6037 17.2896 44.3167 16.6526C45.0303 16.0157 46.1245 16.0771 46.7615 16.7902Z" fill="white"/>
<path fill-rule="evenodd" clip-rule="evenodd" d="M52.9891 23.762C53.6261 24.4756 53.5646 25.5698 52.8511 26.2073C52.1381 26.8438 51.0433 26.7823 50.4063 26.0688C49.7698 25.3558 49.8313 24.2615 50.5443 23.625C51.2579 22.9875 52.3521 23.0495 52.9891 23.762Z" fill="white"/>
<path fill-rule="evenodd" clip-rule="evenodd" d="M59.2167 30.7344C59.8537 31.4475 59.7922 32.5417 59.0787 33.1792C58.3657 33.8162 57.2714 33.7542 56.6344 33.0407C55.9975 32.3282 56.0589 31.2339 56.7719 30.5969C57.4855 29.9594 58.5797 30.0214 59.2167 30.7344Z" fill="white"/>
</g>
<path d="M44.7709 20.8641C44.948 20.885 45.1068 20.8954 45.2506 20.8954C45.8032 20.8954 46.0761 20.748 46.6188 20.4542C47.0662 20.2126 47.623 19.9115 48.4938 19.6251C49.9485 19.1475 50.625 19.1954 51.3527 19.2199C51.512 19.2251 51.675 19.2308 51.8511 19.2308C52.2016 19.2308 52.7032 19.2094 53.4704 19.0438C54.6172 18.7969 55.161 18.6146 55.7365 18.4214C56.3271 18.2235 56.9376 18.0188 58.1693 17.7532C58.7266 17.6334 59.236 17.5771 59.7725 17.5771C60.0396 17.5771 60.2792 17.5912 60.5047 17.6047C61.0277 17.6365 61.398 17.7542 62.2459 17.2646C61.886 15.6584 61.4454 14.0626 60.6584 12.9948C59.7329 11.7376 58.3131 11.1678 56.9402 10.6162L56.4542 10.4193C54.3855 9.56776 52.8313 9.27089 51.7251 9.50995C51.6422 9.57662 51.4678 9.70318 51.1584 9.77037C50.3875 9.93651 48.4287 10.4995 46.8922 12.1292C46.0292 13.0438 44.9131 14.5459 44.4943 16.5074C44.2178 17.8001 44.4365 19.2516 44.7709 20.8641ZM45.2506 22.4537C44.8829 22.4537 44.4651 22.4084 43.9745 22.3146L43.4672 22.2183L43.3584 21.7136C42.9266 19.712 42.6 17.9141 42.9704 16.1818C43.4646 13.8678 44.7594 12.1193 45.7584 11.0599C47.0511 9.68911 48.8995 8.66359 50.8292 8.24693C50.9126 8.18026 51.0865 8.05422 51.3964 7.98703C52.8329 7.67661 54.6568 7.99432 57.0469 8.9787L57.5209 9.17036C58.9485 9.7438 60.7245 10.4568 61.9126 12.0704C62.9683 13.5037 63.4652 15.5193 63.8839 17.4615L63.9928 17.9662L63.5704 18.2631C62.6396 18.9167 61.8954 19.1834 61.0006 19.1834C60.8089 19.1834 60.6162 19.1725 60.412 19.16C60.2146 19.148 60.0053 19.1355 59.7725 19.1355C59.349 19.1355 58.9443 19.1803 58.4975 19.2766C57.3511 19.5235 56.8073 19.7058 56.2318 19.899C55.6407 20.0969 55.0303 20.3016 53.7985 20.5673C52.8875 20.7636 52.2792 20.7886 51.8511 20.7886C51.6563 20.7886 51.4756 20.7829 51.2995 20.7766C50.6506 20.7547 50.099 20.7376 48.9803 21.1053C48.2412 21.3485 47.7735 21.6016 47.3599 21.8251C46.7625 22.148 46.1974 22.4537 45.2506 22.4537ZM35.8235 55.7267C35.7011 56.5459 35.8526 56.9251 36.0818 57.498C36.2938 58.0282 36.5573 58.6876 36.6719 59.7813C36.8068 61.0756 36.7177 61.7491 36.6313 62.4001C36.5537 62.9871 36.4802 63.5412 36.5964 64.6522C36.7136 65.7772 36.8808 66.3136 37.0584 66.8803C37.2506 67.4959 37.4495 68.1324 37.5834 69.4126C37.7063 70.5907 37.8037 71.1584 37.9068 71.7605C38.0094 72.36 38.1157 72.9798 38.2443 74.2084C38.3698 75.4168 38.4214 76.023 38.4735 76.6282C38.5245 77.2282 38.5756 77.8272 38.7006 79.0241C38.836 80.3272 38.7313 81.0063 38.6297 81.6621C38.5396 82.2465 38.4542 82.7985 38.5693 83.9006C38.6834 84.9949 38.8912 85.5121 39.112 86.06C39.3511 86.6537 39.6219 87.3277 39.7589 88.6392C39.8875 89.8746 39.9 90.5079 39.912 91.1204C39.924 91.7277 39.9355 92.3012 40.0579 93.4709C40.187 94.71 40.1943 95.3459 40.2011 95.96C40.2084 96.5668 40.2146 97.1392 40.3365 98.3058C40.4584 99.4756 40.5688 100.038 40.6855 100.633C40.8037 101.236 40.9256 101.86 41.0547 103.098C41.1849 104.345 41.1776 104.987 41.1709 105.607C41.1641 106.21 41.1579 106.78 41.2787 107.938C41.4068 109.168 41.4308 109.797 41.4537 110.406C41.4771 111.016 41.4985 111.592 41.6219 112.77C41.7105 113.622 41.6969 114.223 41.686 114.705C41.6657 115.606 41.6558 116.017 42.3375 117.243C42.3912 117.339 42.4365 117.412 42.474 117.466C42.6099 117.335 42.7912 117.128 42.9349 116.964C43.536 116.277 44.3589 115.338 45.6787 114.771C46.3527 114.483 47.0933 114.299 47.8782 114.105C48.6964 113.903 49.5422 113.693 50.3537 113.351C51.1219 113.026 51.923 112.704 52.7438 112.374C53.4365 112.095 54.1428 111.811 54.8547 111.516C55.5396 111.231 56.2042 110.878 56.9084 110.503C57.6527 110.108 58.4219 109.699 59.2303 109.371C59.8829 109.106 60.5292 108.833 61.1698 108.563C62.0334 108.199 62.8865 107.839 63.7277 107.508C64.6386 107.151 65.5449 106.923 66.4209 106.702C67.1339 106.523 67.8068 106.354 68.4126 106.13C69.2574 105.819 70.0126 105.438 70.7428 105.07C71.5011 104.687 72.2178 104.326 72.9042 104.12C74.4277 103.665 75.998 103.255 77.5704 102.901C78.4818 102.696 79.4094 102.627 80.3063 102.561C81.0199 102.507 81.6933 102.457 82.3537 102.344L83.4282 102.158C84.6261 101.949 85.8647 101.732 87.0787 101.577C88.0647 101.45 89.035 101.397 89.9725 101.345C90.624 101.309 91.2402 101.276 91.8496 101.219L93.1183 101.099C94.3418 100.98 95.4975 100.868 96.61 100.8C97.4636 100.748 98.2777 100.604 99.0652 100.465C99.872 100.323 100.634 100.189 101.368 100.166C102.764 100.121 103.946 100.591 104.803 100.93C105.098 101.046 105.424 101.175 105.632 101.226C105.642 101.165 105.652 101.082 105.657 100.97C105.708 99.8423 105.457 99.4975 105.001 98.8725C104.665 98.4121 104.246 97.8392 103.887 96.8741C103.503 95.8418 103.236 95.3699 102.954 94.8699C102.655 94.3392 102.345 93.7907 101.918 92.6433C101.491 91.4965 101.366 90.8798 101.245 90.2829C101.131 89.7204 101.024 89.1892 100.639 88.1564C100.218 87.0251 100.069 86.4256 99.9256 85.8465C99.786 85.2834 99.6548 84.7527 99.2642 83.7038C98.8662 82.635 98.6433 82.1267 98.4079 81.5876C98.1746 81.0527 97.9329 80.5006 97.5194 79.3902C97.135 78.3579 96.8694 77.885 96.5886 77.384C96.2907 76.8537 95.9829 76.3053 95.5558 75.1595C95.1256 74.0037 95.0131 73.3777 94.9043 72.7725C94.8032 72.21 94.7074 71.6782 94.3261 70.6543C93.9162 69.5522 93.7261 68.985 93.5423 68.4366C93.3631 67.9001 93.1772 67.3454 92.7761 66.2678C92.4063 65.2751 92.0954 64.8402 91.7657 64.3798C91.4089 63.8813 91.0042 63.3157 90.5621 62.1282C90.1282 60.9626 90.0319 60.3246 89.9386 59.7074C89.8532 59.1438 89.773 58.6116 89.3949 57.597C88.9996 56.5355 88.7673 56.0355 88.5209 55.5053C88.273 54.972 88.0167 54.4199 87.6001 53.3011C87.2751 52.4287 87.0173 51.9662 86.7678 51.5183C86.4188 50.8918 86.0891 50.3001 85.7615 48.8902C85.56 48.023 85.5157 47.4058 85.4803 46.91C85.4287 46.1813 85.4011 45.7954 84.8704 45.0662C83.9089 45.2652 82.8516 45.447 81.861 45.447C81.2371 45.447 80.6897 45.3777 80.1886 45.235C78.7818 44.835 77.3308 43.96 75.8751 42.6329C74.7089 41.5699 73.7813 40.1464 72.9313 38.7798C72.086 37.4214 71.2766 36.0803 70.6584 34.6027C70.2844 33.7079 70.0881 32.7527 69.8985 31.8298C69.7761 31.2318 69.649 30.6141 69.4766 30.0376C69.2949 29.4292 69.0126 28.8324 68.7147 28.2006C68.3324 27.3912 67.9365 26.5548 67.7412 25.6464C67.6006 24.9949 67.5042 24.3292 67.4115 23.685C67.2704 22.7105 67.137 21.7896 66.8636 20.9042L66.6079 20.0626C66.211 18.7501 65.8365 17.51 65.3157 16.3553C64.7672 15.1407 63.9751 14.0506 63.2094 12.9969C63.0558 12.786 62.9032 12.5761 62.7542 12.3667C62.5032 12.0162 62.2641 11.6547 62.0256 11.2943C61.3459 10.2667 60.7037 9.29589 59.8563 8.68495C58.586 7.76932 57.0641 7.12088 55.5714 6.85942C54.6532 6.69901 53.4594 6.96776 52.2053 7.27661C51.8094 7.37401 51.4053 7.47297 50.9933 7.56151C49.3042 7.92557 47.8152 8.28859 46.6974 9.05005C45.273 10.0204 44.2021 11.1188 43.5141 12.3157C42.75 13.6459 42.3792 15.3042 42.0912 16.7537C41.7683 18.3823 41.6047 19.9709 41.6058 21.4745C41.6063 22.4813 41.7756 23.5027 41.9547 24.5839C42.0454 25.1324 42.1365 25.6829 42.2063 26.2355C42.2948 26.9386 42.3266 27.6475 42.3568 28.3334C42.3995 29.2943 42.4396 30.2022 42.625 31.062C42.8881 32.2824 43.05 33.5324 43.2068 34.7407L43.3287 35.6683C43.375 36.01 43.424 36.3506 43.473 36.6891C43.6433 37.873 43.8198 39.097 43.8542 40.3141C43.8948 41.7204 43.9068 43.3803 43.6886 45.024C43.6297 45.4694 43.5901 45.9167 43.5516 46.3589C43.4474 47.5318 43.3407 48.7449 42.8776 49.8188C42.2672 51.236 41.099 52.1923 40.0688 53.0355C39.8886 53.1829 39.7094 53.3292 39.5339 53.4777C38.5422 54.3162 37.4297 55.2563 35.8235 55.7267ZM42.4323 119.125C41.6006 119.125 41.1464 118.307 40.975 118C40.1303 116.478 40.1032 115.777 40.1282 114.67C40.1386 114.208 40.1506 113.686 40.0719 112.932C39.9438 111.703 39.9198 111.073 39.8969 110.464C39.874 109.854 39.8521 109.278 39.7292 108.1C39.599 106.852 39.6058 106.211 39.6131 105.59C39.6198 104.987 39.6261 104.417 39.5052 103.259C39.3834 102.091 39.273 101.528 39.1563 100.933C39.0381 100.33 38.9162 99.7064 38.787 98.4678C38.6579 97.2288 38.65 96.5928 38.6433 95.9788C38.6365 95.3725 38.6297 94.7996 38.5079 93.6329C38.3787 92.3975 38.3667 91.7642 38.3547 91.1511C38.3427 90.5444 38.3313 89.9704 38.2089 88.8006C38.0954 87.7069 37.887 87.1892 37.6662 86.6412C37.4271 86.047 37.1563 85.3735 37.0193 84.0626C36.8834 82.76 36.9886 82.0813 37.0901 81.4241C37.1802 80.8402 37.2657 80.2887 37.1506 79.1855C37.024 77.9741 36.9724 77.3678 36.9209 76.7605C36.8698 76.1626 36.8188 75.5636 36.6943 74.3699C36.5714 73.1933 36.474 72.6251 36.3709 72.0235C36.2683 71.4235 36.162 70.8032 36.0339 69.5741C35.9162 68.4491 35.749 67.9131 35.5714 67.3459C35.3792 66.7303 35.1802 66.0944 35.0464 64.8142C34.9115 63.5194 35.0006 62.8459 35.087 62.1949C35.1646 61.6079 35.2381 61.0537 35.1219 59.9428C35.0302 59.0652 34.8297 58.5626 34.6349 58.0766C34.3214 57.2923 34.0256 56.5511 34.3912 54.923L34.5006 54.4371L34.9875 54.3324C36.4927 54.0084 37.5276 53.1334 38.5282 52.2876C38.7099 52.1339 38.8954 51.9824 39.0818 51.8298C40.061 51.0282 40.9865 50.2709 41.4469 49.2027C41.8105 48.3584 41.9021 47.3204 41.9995 46.2214C42.0401 45.7569 42.0818 45.2871 42.1438 44.8194C42.3474 43.285 42.3355 41.7037 42.2969 40.3589C42.2646 39.2303 42.1021 38.1037 41.9308 36.911C41.8813 36.5678 41.8313 36.2235 41.7849 35.8766L41.662 34.9412C41.5021 33.71 41.3516 32.5469 41.1021 31.3907C40.8891 30.4021 40.8438 29.3855 40.8 28.4027C40.7698 27.7178 40.7412 27.0704 40.6605 26.4303C40.5933 25.8975 40.5047 25.3672 40.4178 24.8386C40.236 23.7428 40.0485 22.61 40.048 21.4756C40.0469 19.8698 40.2204 18.1792 40.5631 16.4506C40.8745 14.8792 41.2813 13.0745 42.1636 11.5396C42.9693 10.137 44.2 8.8662 45.8204 7.76255C47.1709 6.84276 48.8136 6.43755 50.6652 6.03859C51.062 5.95317 51.4516 5.85734 51.8334 5.76359C52.9089 5.49901 53.9245 5.24901 54.9355 5.24901C55.2501 5.24901 55.5547 5.27453 55.8402 5.32453C57.5605 5.62609 59.31 6.37036 60.7672 7.42088C61.8459 8.19849 62.598 9.33547 63.3251 10.435C63.5532 10.7797 63.7818 11.1256 64.0214 11.461C64.1688 11.6667 64.3188 11.873 64.4699 12.0808C65.2818 13.1985 66.1214 14.3537 66.7355 15.7141C67.2985 16.962 67.7058 18.3094 68.099 19.612L68.3527 20.4449C68.6615 21.4464 68.81 22.4709 68.9532 23.462C69.0469 24.1079 69.135 24.7188 69.2641 25.3178C69.4219 26.0511 69.7626 26.7719 70.123 27.535C70.4329 28.1912 70.7537 28.8699 70.9693 29.5912C71.1615 30.2334 71.2954 30.8855 71.4251 31.5162C71.6074 32.4058 71.7803 33.2459 72.0959 34.0016C72.6699 35.374 73.4131 36.6048 74.2542 37.9568C75.0469 39.2313 75.9058 40.5527 76.9246 41.4813C78.2001 42.6444 79.4417 43.4032 80.6147 43.736C80.9756 43.8391 81.3829 43.8886 81.861 43.8886C82.8657 43.8886 84.0193 43.6584 85.0214 43.4423L85.486 43.3417L85.7876 43.7089C86.8579 45.0115 86.9584 45.7319 87.0345 46.7996C87.0678 47.2636 87.1053 47.7902 87.2792 48.5376C87.5569 49.7334 87.797 50.1641 88.1287 50.76C88.3938 51.2355 88.6938 51.774 89.0605 52.7574C89.4553 53.8188 89.6881 54.3188 89.9339 54.849C90.1819 55.3824 90.4386 55.9345 90.8553 57.0532C91.2891 58.2194 91.3855 58.8574 91.4792 59.4746C91.5641 60.0381 91.6444 60.5704 92.0225 61.585C92.3923 62.5777 92.7032 63.0126 93.0329 63.473C93.3897 63.972 93.7944 64.5371 94.2365 65.7246C94.6464 66.8261 94.8365 67.3933 95.0199 67.9423C95.1996 68.4782 95.3855 69.0329 95.7865 70.111C96.2162 71.2652 96.3293 71.8918 96.4376 72.497C96.5386 73.0595 96.6345 73.5907 97.0157 74.6157C97.4006 75.648 97.6657 76.1215 97.947 76.622C98.2449 77.1522 98.5527 77.7006 98.9798 78.8465C99.3777 79.9163 99.6001 80.4246 99.8355 80.9637C100.069 81.498 100.311 82.0501 100.725 83.1605C101.145 84.2918 101.294 84.8918 101.438 85.4715C101.577 86.0334 101.709 86.5642 102.1 87.6131C102.527 88.76 102.651 89.3772 102.772 89.9735C102.886 90.536 102.993 91.0678 103.378 92.1001C103.763 93.1324 104.029 93.6043 104.311 94.1043C104.61 94.635 104.92 95.1829 105.347 96.3303C105.631 97.0939 105.951 97.5314 106.259 97.9543C106.789 98.6803 107.29 99.3663 107.214 101.041C107.144 102.576 106.284 102.805 105.777 102.805C105.311 102.805 104.81 102.608 104.231 102.379C103.489 102.086 102.565 101.721 101.55 101.721L101.417 101.723C100.795 101.743 100.086 101.867 99.3355 102C98.5444 102.139 97.6475 102.297 96.7058 102.355C95.6204 102.422 94.4777 102.532 93.2683 102.649L91.9933 102.771C91.3542 102.83 90.6954 102.866 90.0579 102.901C89.148 102.951 88.2069 103.003 87.2772 103.121C86.0985 103.273 84.9319 103.477 83.6964 103.693L82.6162 103.881C81.8824 104.006 81.1397 104.061 80.4219 104.114C79.5423 104.18 78.712 104.241 77.9126 104.421C76.3751 104.767 74.8397 105.168 73.3496 105.614C72.7959 105.779 72.1693 106.095 71.4443 106.461C70.711 106.831 69.8792 107.25 68.9521 107.592C68.2678 107.844 67.5553 108.024 66.8006 108.213C65.9725 108.421 65.1152 108.637 64.2975 108.959C63.4678 109.284 62.6266 109.639 61.7756 109.999C61.1282 110.271 60.4751 110.546 59.8167 110.814C59.0823 111.112 58.349 111.502 57.6391 111.879C56.9344 112.254 56.2053 112.641 55.4521 112.954C54.7349 113.252 54.0235 113.538 53.3256 113.819C52.5131 114.146 51.7204 114.465 50.9599 114.786C50.0355 115.177 49.0881 115.411 48.2521 115.618C47.5308 115.796 46.8495 115.965 46.2922 116.204C45.2985 116.63 44.6381 117.384 44.1073 117.99C43.574 118.599 43.1131 119.125 42.4323 119.125Z" fill="#3AA8A5"/>
<path d="M71.6605 61.6881L52.5277 65.8126L49.6547 58.5506L71.287 53.8855L71.6605 61.6881Z" fill="#8C5436"/>
<path d="M72.5084 55.7188C71.1975 49.6428 65.0376 46.1152 58.5922 47.5058C52.1464 48.8949 47.9849 54.647 49.2969 60.723V60.722C49.3006 60.7339 49.3037 60.748 49.3037 60.76C49.5803 62.0386 50.8417 62.8543 52.1235 62.5767C53.4063 62.3006 54.2198 61.0391 53.948 59.7579C53.9454 59.7475 53.9376 59.7345 53.9365 59.7225L53.9407 59.7214C53.9428 59.7329 53.9454 59.7475 53.948 59.7579C54.2198 61.0391 55.4865 61.8517 56.7662 61.5761C58.0511 61.2996 58.8636 60.0381 58.5886 58.7563C58.5876 58.7464 58.5813 58.7313 58.5787 58.723L58.5834 58.7204C58.5844 58.7313 58.5876 58.7464 58.5886 58.7563C58.8636 60.0381 60.1266 60.8522 61.4084 60.5746C62.6891 60.2985 63.5058 59.035 63.2303 57.7558C63.2266 57.7449 63.2245 57.7308 63.2214 57.7204H63.2245C63.2266 57.7308 63.2266 57.7449 63.2303 57.7558C63.5058 59.035 64.7714 59.8496 66.0511 59.574C67.337 59.297 68.1506 58.0345 67.8735 56.7548C67.8725 56.7433 67.8662 56.7313 67.8636 56.7204L67.8693 56.7194C67.8693 56.7313 67.8725 56.7433 67.8735 56.7548C68.1506 58.0345 69.4115 58.8501 70.6933 58.574C71.9751 58.2975 72.7897 57.0339 72.5147 55.7543C72.5115 55.7402 72.5084 55.7308 72.5063 55.7188H72.5084Z" fill="#FFE6B8"/>
<path d="M72.3339 60.7433C72.0355 60.8084 71.5391 61.2876 71.5808 61.7048L70.8688 61.8595C70.7777 61.4345 70.3798 61.1647 69.9792 61.2511C69.5808 61.3371 69.3298 61.7485 69.4225 62.1709L68.7016 62.3266C68.6079 61.8803 68.1699 61.5954 67.724 61.6912C67.2766 61.7886 66.9959 62.2266 67.0912 62.6756L66.373 62.8277C66.2751 62.3824 65.8396 62.0975 65.3928 62.1928C64.9459 62.2907 64.6626 62.7298 64.7605 63.1756L64.049 63.3287C63.9527 62.8819 63.5136 62.5985 63.0683 62.6954C62.6225 62.7912 62.3402 63.2319 62.4339 63.6772L61.712 63.8329C61.6178 63.386 61.1756 63.1037 60.7324 63.1996C60.286 63.2944 60.0021 63.7345 60.098 64.1808L59.3855 64.3345C59.2912 63.8886 58.8495 63.6043 58.4032 63.7006C57.9594 63.7975 57.6745 64.2355 57.7725 64.6819L57.0428 64.8386C56.948 64.3928 56.5063 64.111 56.0631 64.2069C55.6172 64.3022 55.3334 64.7418 55.4303 65.1886L54.7292 65.3391C54.6282 64.8938 54.2297 64.6016 53.8308 64.6881C53.4282 64.7746 53.1813 65.2053 53.2792 65.6517L52.562 65.8058C52.4698 65.3845 51.7907 65.173 51.512 65.2329L56.9105 74.8652L71.2943 71.7626L72.3339 60.7433Z" fill="#FDCA91"/>
<path d="M57.3329 74.7746L57.7475 74.6829L53.2719 65.6527L52.5631 65.8048L57.3329 74.7746Z" fill="#C9763C"/>
<path d="M58.8256 74.4501L59.2865 74.3543L55.4381 65.186L54.7292 65.3392L58.8256 74.4501Z" fill="#C9763C"/>
<path d="M60.3907 74.1152L60.8485 74.0136L57.7672 64.6829L57.0626 64.8355L60.3907 74.1152Z" fill="#C9763C"/>
<path d="M62.1193 73.7412L62.5813 73.6423L60.0933 64.1819L59.3855 64.3345L62.1193 73.7412Z" fill="#C9763C"/>
<path d="M63.8709 73.3647L64.3313 73.2626L62.4266 63.6787L61.7167 63.8303L63.8709 73.3647Z" fill="#C9763C"/>
<path d="M65.6245 72.986L66.0813 72.8886L64.7573 63.1756L64.0516 63.3287L65.6245 72.986Z" fill="#C9763C"/>
<path d="M67.3532 72.6136L67.812 72.5131L67.0824 62.6756L66.3751 62.8267L67.3532 72.6136Z" fill="#C9763C"/>
<path d="M68.9126 72.2772L69.3719 72.1782L69.4152 62.1714L68.7079 62.3235L68.9126 72.2772Z" fill="#C9763C"/>
<path d="M70.4167 71.9527L70.8292 71.8636L71.5803 61.7058L70.8735 61.8558L70.4167 71.9527Z" fill="#C9763C"/>
<path d="M54.7412 53.3912C55.2042 53.1444 56.0402 52.5532 56.4001 52.1261C57.135 51.2516 56.4011 50.4938 55.7667 50.6808C55.3975 50.7886 55.1527 51.099 55.062 51.1886C55.0006 51.0751 54.8542 50.711 54.5344 50.5001C53.9818 50.1391 53.061 50.6553 53.512 51.7042C53.7339 52.2152 54.3641 53.0204 54.7412 53.3912Z" fill="white"/>
<path d="M63.8147 56.0527C63.999 55.5584 64.235 54.5631 64.2209 54.0053C64.1949 52.8641 63.1428 52.7793 62.7907 53.3376C62.5865 53.6647 62.6084 54.0579 62.6001 54.1839C62.4803 54.1407 62.1251 53.9621 61.7469 54.0168C61.0928 54.1141 60.7417 55.1063 61.7771 55.5959C62.2803 55.8329 63.287 56.0194 63.8147 56.0527Z" fill="white"/>
<path d="M57.3824 56.923C57.7995 56.6001 58.5188 55.8751 58.8006 55.3959C59.3792 54.4079 58.5251 53.7855 57.9339 54.0772C57.5891 54.2475 57.4006 54.5933 57.3261 54.6964C57.2475 54.5964 57.0396 54.2626 56.6886 54.1084C56.0813 53.847 55.2636 54.5095 55.887 55.4688C56.1922 55.9329 56.9506 56.6204 57.3824 56.923Z" fill="#ED6274"/>
<path d="M50.4089 57.8912C50.9386 57.9032 51.9547 57.7912 52.474 57.5928C53.5448 57.1871 53.2719 56.1668 52.6277 56.0235C52.2532 55.9407 51.8902 56.0892 51.7641 56.1235C51.7683 55.9964 51.8188 55.6048 51.6381 55.2652C51.3297 54.6813 50.2777 54.6824 50.1599 55.8199C50.1073 56.3746 50.2667 57.386 50.4089 57.8912Z" fill="#ED6274"/>
<path d="M64.8178 51.6136C65.0516 51.1412 65.3834 50.1746 65.423 49.6188C65.5105 48.4792 64.4709 48.2928 64.0667 48.8152C63.8297 49.1183 63.8146 49.5121 63.7902 49.6376C63.6761 49.5813 63.3443 49.3704 62.9584 49.3891C62.3006 49.4178 61.8547 50.374 62.8355 50.9621C63.3141 51.2454 64.2985 51.5329 64.8178 51.6136Z" fill="#ED6274"/>
<path d="M69.8006 54.2595C70.0417 53.7897 70.3876 52.8267 70.4339 52.272C70.5376 51.1334 69.5032 50.9329 69.0896 51.449C68.8516 51.7496 68.8266 52.1407 68.8042 52.2699C68.6891 52.21 68.3579 51.9959 67.9751 52.0079C67.3178 52.0272 66.8558 52.9766 67.8282 53.5777C68.3027 53.8683 69.2813 54.1699 69.8006 54.2595Z" fill="#ED6274"/>
<path d="M62.1959 45.5397C62.6152 47.4808 61.2157 49.0996 59.2725 49.5209C57.3308 49.9381 55.8469 49.1709 55.4292 47.2298C55.0115 45.286 55.9745 43.1985 57.9167 42.7792C59.862 42.3589 61.7782 43.5964 62.1959 45.5397Z" fill="#D6383E"/>
<path d="M59.9558 44.9397C59.8563 44.9595 59.748 44.9287 59.6766 44.8459C59.5699 44.7256 59.585 44.5449 59.7037 44.4391C59.849 44.3131 63.2074 41.3058 61.2298 36.7907C61.1673 36.6449 61.2329 36.474 61.3808 36.4079C61.5261 36.3449 61.6954 36.4141 61.7605 36.56C63.9115 41.4683 60.1225 44.8407 60.0829 44.8746C60.0449 44.9068 60.0027 44.9287 59.9558 44.9397Z" fill="#8C5436"/>
</g>
<defs>
<clipPath id="clip0_9_2">
<rect width="222" height="120" fill="white"/>
</clipPath>
</defs>
</svg>
